<svg width="184" height="198" viewBox="0 0 184 198" fill="none" xmlns="http://www.w3.org/2000/svg">
<path d="M128.511 19.7693C142.315 37.4747 155.864 55.7259 155.115 79.4013C154.502 98.8635 144.187 117.661 125.617 124.722C96.3064 135.861 59.6255 128.56 30.9277 118.769C27.9489 117.746 26.6553 122.488 29.6341 123.494C60.8 134.087 105.532 143.246 135.455 124.552C150.792 114.983 158.502 95.7591 158.468 78.139C158.417 55.9306 145.838 33.2786 129.26 19.0358C128.732 18.5923 128.119 19.2405 128.511 19.7693Z" fill="#231F20"/>
<path d="M59.4723 155.954C48.8851 143.332 38.0255 130.897 27.183 118.496C26.8425 119.793 26.5021 121.089 26.1617 122.385C38.366 119.298 51.7787 117.268 63.3872 112.424C65.1234 111.691 65.2085 108.484 62.8936 108.74C50.1617 110.07 37.3277 114.727 24.9362 117.916C23.1659 118.377 22.7745 120.543 23.9149 121.805C34.9106 134.035 45.9234 146.283 57.1745 158.291C58.6213 159.843 60.8 157.557 59.4723 155.954Z" fill="#231F20"/>
</svg>
