<svg width="171" height="178" viewBox="0 0 171 178" fill="none" xmlns="http://www.w3.org/2000/svg">
<path d="M141.506 102.311C135.708 99.3987 130.094 96.4009 124.494 93.0196C118.95 89.6666 113.293 86.5551 107.594 83.5005C112.218 80.4601 116.857 77.4481 121.524 74.4503C129.373 69.4209 137.278 64.4909 145.339 59.7455C154.701 54.2472 148.676 46.6746 146.23 39.1588C142.822 28.7589 136.189 29.8813 127.973 34.172C120.491 38.0791 113.336 42.3982 106.321 47.1151C101.428 50.397 96.4501 53.5653 91.4439 56.6909C91.0055 50.1555 90.3974 43.6342 89.8035 37.113C88.9267 27.5939 89.1529 18.1317 88.0781 8.72634C87.866 6.93619 88.1771 3.61163 87.4276 1.99198C86.3245 -0.366473 83.68 0.0171289 81.389 0.0313364C77.6414 0.0455439 73.9221 0.258659 70.2169 0.826959C67.5582 1.22477 62.5236 1.22477 60.4164 2.83022C56.6971 5.65752 57.687 12.4345 57.9416 16.4552C58.3659 22.9481 58.6063 29.3272 58.5215 35.8911C58.4366 43.0517 58.6487 50.1839 58.9457 57.3303C53.8546 54.4746 48.7918 51.5762 43.7996 48.55C36.5731 44.1741 29.2335 40.196 21.5827 36.6441C13.1824 32.737 6.50733 31.913 3.57994 42.4692C1.47279 50.0986 -4.18392 57.9412 5.41847 62.9991C13.6915 67.3608 21.8231 71.9214 29.8982 76.5815C34.7064 79.3661 39.5005 82.1792 44.2805 85.0065C38.7086 88.3311 33.1933 91.7125 27.791 95.3354C22.3605 98.9725 16.8876 102.24 11.2308 105.409C7.73772 107.369 1.52936 110.225 1.18995 114.899C1.0061 117.556 3.73553 121.79 4.8386 124.262C6.38007 127.686 8.23269 130.939 10.255 134.108C11.4853 136.04 12.6025 138.484 15.1764 138.143C16.9441 137.901 19.5463 135.841 21.1585 135.031C29.6012 130.826 37.3793 125.484 45.8079 121.051C50.8565 118.394 55.9194 115.752 60.9256 112.995C60.9963 118.11 61.0246 123.225 60.9538 128.354C60.8266 136.821 61.1094 145.204 61.9155 153.643C62.7923 162.892 65.451 169.115 76.0009 166.33C83.6234 164.313 93.2117 165.279 92.7308 154.396C92.3066 145.019 92.1368 135.656 92.0661 126.308C92.0378 121.591 92.0378 116.874 92.052 112.157C97.2279 114.7 102.475 117.144 107.693 119.588C116.32 123.623 124.338 128.595 132.965 132.403C134.619 133.127 137.306 135.074 139.074 135.23C141.662 135.457 142.666 132.971 143.812 130.982C145.678 127.729 147.375 124.39 148.761 120.895C149.751 118.38 152.297 114.018 151.971 111.376C151.406 106.673 145.084 104.101 141.506 102.311Z" fill="#EB7676"/>
<path d="M82.3533 176.608C71.7026 178.353 60.5763 174.662 53.0893 166.896L52.7363 166.523L52.7324 166.52L51.8969 165.567L51.6743 165.321C49.3967 162.75 48.0383 159.378 47.9512 155.927L47.9522 155.927C47.8965 155.108 48.0541 153.622 48.2421 152.144C48.432 150.652 48.6528 149.162 48.7279 148.318L48.7289 148.312C49.987 138.607 51.2235 128.047 52.5793 118.405L52.6219 118.103L52.8352 118.32C52.8587 118.344 52.9045 118.369 52.9594 118.388C52.9843 118.397 53.0073 118.403 53.0236 118.407C53.0317 118.409 53.0381 118.41 53.0422 118.411C53.044 118.411 53.0453 118.412 53.046 118.412L53.1825 118.436L53.1691 118.574C52.2382 128.22 51.263 138.879 50.2658 148.59C50.2396 149.287 50.0503 150.789 49.8871 152.277C49.8048 153.028 49.7283 153.779 49.682 154.428C49.6355 155.081 49.62 155.621 49.6551 155.957L49.656 155.965C49.7897 158.323 50.5379 160.655 51.8388 162.638L51.8407 162.642C52.4413 163.614 53.3609 164.52 54.1459 165.423L54.1468 165.423L55.0099 166.273C57.6118 168.835 60.7417 170.886 64.0749 172.387L64.0749 172.388C66.5039 173.422 69.104 174.255 71.7163 174.677L72.2388 174.756L72.2398 174.756C75.4491 175.216 78.7278 175.223 81.947 174.712L84.5007 173.574C85.4713 172.944 85.8864 172.558 86.287 172.167C86.6449 171.819 86.9948 171.463 87.7011 170.934L88.0262 170.697C94.1015 166.314 99.0863 160.166 101.48 153.019L101.481 153.017C102.199 150.992 102.483 148.315 102.61 145.585C102.673 144.223 102.696 142.85 102.715 141.544C102.734 140.241 102.75 139.002 102.795 137.908L102.794 137.907L103.141 122.447L103.143 122.367L103.209 122.324L103.802 121.94L103.871 121.896L103.945 121.929C111.093 125.079 119.997 128.871 127.214 131.958L127.214 131.957C128.339 132.395 129.719 133.027 131.095 133.62C132.476 134.215 133.856 134.774 135 135.078L135 135.077C144.499 137.455 154.699 131.782 159.346 123.466L159.347 123.463C159.611 123.015 160.076 122.081 160.312 121.622C162.393 117.401 164.731 113.218 165.576 108.606L165.653 108.158C166.704 101.676 164.44 94.818 159.777 90.2202L159.318 89.7831L159.316 89.7811L158.854 89.3527C156.502 87.2541 153.648 85.7761 150.585 84.9498L150.584 84.9498L147.547 84.1306L144.462 83.3118L144.461 83.3108L134.972 80.793C130.556 79.6237 126.226 78.4792 125.999 78.4279L125.65 78.3495L125.951 78.1558C136.091 71.6203 146.398 64.9572 156.538 58.454L156.537 58.453L159.402 56.5942L159.404 56.5923C167.759 51.4359 170.569 39.9699 165.651 31.4975L165.411 31.0962L165.409 31.0923L165.207 30.752C164.995 30.4028 164.755 30.0302 164.512 29.6616L163.585 28.2726L163.583 28.2697L162.906 27.2127C161.314 24.757 159.622 22.3861 157.432 20.4326L157.431 20.4326L156.178 19.3474L154.85 18.3531L154.851 18.3531C154.801 18.3189 154.744 18.2777 154.689 18.2379C154.632 18.1961 154.578 18.1562 154.531 18.1247L154.532 18.1247L154.182 17.8959L154.181 17.8959L153.468 17.4636L153.466 17.4616L153.032 17.1928C150.849 15.8674 148.391 14.8309 145.901 14.1932L145.902 14.1932C143.761 13.6479 141.555 13.2979 139.348 13.2718L139.344 13.2717L138.961 13.2603C137 13.235 134.238 13.6181 132.887 13.9063C122.377 19.0319 110.848 24.6997 100.272 29.7918L100.147 29.8519L100.078 29.7319L99.9819 29.5676L99.9025 29.4319L100.042 29.3594C110.495 23.9049 121.874 17.8392 132.361 12.5142L132.377 12.5066L132.393 12.5029C141.747 10.1871 151.538 12.5976 158.72 19.0113L159.289 19.5258C162.089 22.1439 164.177 25.4202 166.28 28.5594L166.28 28.5604C172.591 37.1135 171.426 49.2536 163.542 56.4215C162.805 57.1396 161.792 57.8755 160.755 58.5684C159.72 59.26 158.639 59.9235 157.791 60.4787L157.79 60.4797L152.028 64.1637L146.269 67.8536C141.219 71.0782 136.159 74.2861 131.097 77.5028C136.333 78.9343 146.839 81.7961 149.023 82.3892L149.024 82.3892C162.923 85.3157 171.014 99.2348 166.021 112.607L165.78 113.234C164.554 116.354 162.957 119.28 161.423 122.195C157.921 129.304 151.155 134.737 143.281 136.154L142.686 136.255C139.699 136.723 136.567 136.57 133.673 135.579L133.672 135.579C132.655 135.238 131.673 134.8 130.7 134.364L130.701 134.364C128.261 133.324 121.567 130.505 119.031 129.431L119.03 129.431L117.23 128.661C113.145 126.928 108.119 124.879 104.226 123.25L104.206 137.859L104.196 138.734C104.191 139.629 104.201 140.589 104.208 141.588C104.218 142.919 104.223 144.316 104.186 145.71C104.113 148.492 103.868 151.273 103.132 153.489C101.593 158.618 98.6512 163.169 95.0992 167.054L95.0982 167.054L94.4148 167.774C92.796 169.432 91.013 170.936 89.1325 172.289L88.3417 172.843C86.4423 174.135 84.2141 175.416 82.4102 176.586L82.3837 176.603L82.3533 176.608Z" fill="#231F20" stroke="black" stroke-width="0.3"/>
</svg>
