<svg width="543" height="293" viewBox="0 0 543 293" fill="none" xmlns="http://www.w3.org/2000/svg">
<path d="M247.427 131.931C256.794 112.804 267.031 94.5745 281.68 79.1667C303.456 56.239 329.067 40.7594 361.565 39.8019C402.811 38.5921 426.238 67.2768 417.384 107.709C411.986 132.416 399.053 153.396 384.484 173.521C383.172 175.348 381.928 177.212 380.103 179.853C391.874 174.435 402.502 169.013 413.545 164.61C429.583 158.195 446.309 154.924 463.686 155.941C485.734 157.257 503.936 166.485 516.486 184.704C536.105 213.188 543.63 245.345 541.995 279.613C541.394 292.004 539.409 293.218 526.67 292.501C504.1 291.236 481.51 288.548 458.961 288.67C414.522 288.903 370.108 291.46 325.672 291.623C274.125 291.784 222.552 290.73 170.982 289.572C126.516 288.591 82.0873 286.536 37.6298 285.311C29.6942 285.107 24.4489 282.325 20.1357 275.658C3.80954 250.27 -2.95021 223.062 2.25026 193.009C8.00759 159.889 34.0849 144.981 65.2843 157.5C70.8605 159.738 76.0602 162.83 81.3784 165.51C79.3794 151.087 76.5526 136.532 75.4652 121.829C73.326 93.3943 75.8208 65.3625 90.0879 39.9218C114.445 -3.51112 162.901 -12.5848 202.137 18.2756C232.864 42.4627 246.598 74.6262 247.211 113.097C247.27 119.409 247.367 125.653 247.427 131.931Z" fill="#5E9697"/>
</svg>
