<svg width="223" height="256" viewBox="0 0 223 256" fill="none" xmlns="http://www.w3.org/2000/svg">
<path d="M151.122 79.4792C139.882 79.0874 133.611 86.4116 121.549 79.3891C112.57 74.1653 106.925 61.8972 96.9618 58.7726C89.6733 56.4896 81.6159 57.7407 75.1531 61.8339C63.8054 69.0439 67.3752 84.1176 71.2477 94.4457C75.8213 106.614 81.6262 117.811 84.674 130.563C85.8746 135.605 87.694 143.488 83.9436 147.907C77.9937 154.905 69.8617 146.196 66.0647 141.939C61.5053 136.817 57.1079 131.404 50.7369 128.447C32.5512 120.016 33.1622 144.99 36.3695 156.49C41.8709 176.261 66.5995 209.542 85.9899 217.655C98.0864 222.719 110.39 220.386 119.615 211.074C130.847 199.721 133.866 182.958 130.875 167.787C129.507 160.811 126.553 154.179 124.16 147.521C121.579 140.35 120.5 132.875 118.183 125.665C117.46 123.428 115.548 119.261 117.944 117.586C120.347 115.883 121.57 117.132 122.876 119.076C126.474 124.441 127.578 131.757 129.149 137.912C132.698 151.854 141.404 162.312 155.078 167.555C167.488 172.321 179.832 164.667 185.634 153.833C198.871 129.085 185.248 85.1404 154.602 79.8592C153.381 79.6325 152.221 79.5259 151.122 79.4792Z" fill="#5E9697"/>
<mask id="mask0_602_14106" style="mask-type:luminance" maskUnits="userSpaceOnUse" x="34" y="57" width="157" height="164">
<path d="M151.122 79.4792C139.882 79.0874 133.611 86.4116 121.549 79.3891C112.57 74.1653 106.925 61.8972 96.9618 58.7726C89.6733 56.4896 81.6159 57.7407 75.1531 61.8339C63.8054 69.0439 67.3752 84.1176 71.2477 94.4457C75.8213 106.614 81.6262 117.811 84.674 130.563C85.8746 135.605 87.694 143.488 83.9436 147.907C77.9937 154.905 69.8617 146.196 66.0647 141.939C61.5053 136.817 57.1079 131.404 50.7369 128.447C32.5512 120.016 33.1622 144.99 36.3695 156.49C41.8709 176.261 66.5995 209.542 85.9899 217.655C98.0864 222.719 110.39 220.386 119.615 211.074C130.847 199.721 133.866 182.958 130.875 167.787C129.507 160.811 126.553 154.179 124.16 147.521C121.579 140.35 120.5 132.875 118.183 125.665C117.46 123.428 115.548 119.261 117.944 117.586C120.347 115.883 121.57 117.132 122.876 119.076C126.474 124.441 127.578 131.757 129.149 137.912C132.698 151.854 141.404 162.312 155.078 167.555C167.488 172.321 179.832 164.667 185.634 153.833C198.871 129.085 185.248 85.1404 154.602 79.8592C153.381 79.6325 152.221 79.5259 151.122 79.4792Z" fill="white"/>
</mask>
<g mask="url(#mask0_602_14106)">
<path d="M151.122 79.4792C139.882 79.0874 133.611 86.4116 121.549 79.3891C112.57 74.1653 106.925 61.8972 96.9618 58.7726C89.6733 56.4896 81.6159 57.7407 75.1531 61.8339C63.8054 69.0439 67.3752 84.1176 71.2477 94.4457C75.8213 106.614 81.6262 117.811 84.674 130.563C85.8746 135.605 87.694 143.488 83.9436 147.907C77.9937 154.905 69.8617 146.196 66.0647 141.939C61.5053 136.817 57.1079 131.404 50.7369 128.447C32.5512 120.016 33.1622 144.99 36.3695 156.49C41.8709 176.261 66.5995 209.542 85.9899 217.655C98.0864 222.719 110.39 220.386 119.615 211.074C130.847 199.721 133.866 182.958 130.875 167.787C129.507 160.811 126.553 154.179 124.16 147.521C121.579 140.35 120.5 132.875 118.183 125.665C117.46 123.428 115.548 119.261 117.944 117.586C120.347 115.883 121.57 117.132 122.876 119.076C126.474 124.441 127.578 131.757 129.149 137.912C132.698 151.854 141.404 162.312 155.078 167.555C167.488 172.321 179.832 164.667 185.634 153.833C198.871 129.085 185.248 85.1404 154.602 79.8592C153.381 79.6325 152.221 79.5259 151.122 79.4792Z" fill="#5E9697"/>
</g>
<path d="M28.6642 161.833C43.2007 185.836 63.7474 209.277 88.5162 223.803C96.0074 228.196 113.444 232.936 122.453 231.354C130.856 229.881 134.63 222.412 135.655 214.823C136.676 207.33 135.66 199.571 134.257 192.171C132.015 180.365 128.327 145.276 124.263 133.938C123.484 134.368 122.706 134.797 121.927 135.227C129.031 145.833 128.854 148.389 138.055 157.4C143.639 162.877 150.092 168.317 157.664 170.965C168.478 174.755 177.555 169.758 182.297 160.12C188.606 147.277 187.983 123.646 186.206 109.812C183.869 91.6638 178.161 81.4056 168.674 65.5315C158.539 48.5607 141.445 29.5042 120.692 25.4889C120.692 25.4889 121.76 29.5806 124.097 29.5807C132.358 33.7993 136.693 35.186 143.913 41.0597C150.995 46.817 157.058 53.685 162.185 61.1283C172.249 75.7413 178.894 92.6212 182.275 109.812C185.053 123.962 186.259 139.604 181.935 153.538C179.155 162.488 172.853 171.439 161.982 169.424C154.25 167.99 147.51 162.58 141.96 157.452C131.921 148.183 131.614 144.862 124.097 133.633C123.216 132.318 121.268 133.563 121.76 134.921C127.611 151.24 133.828 192.703 133.308 210.205C133.091 217.545 131.223 226.799 122.734 228.824C114.339 230.828 97.0134 226.077 89.9795 222.056C79.088 215.828 69.3408 207.597 60.4904 198.874C48.8558 187.422 38.5813 174.571 30.1258 160.748C29.5254 159.773 28.0739 160.85 28.6642 161.833Z" fill="#231F20"/>
</svg>
