<svg width="655" height="512" viewBox="0 0 655 512" fill="none" xmlns="http://www.w3.org/2000/svg">
<path d="M351.5 253.502C336.859 271.517 321.513 288.365 302.178 301.134C273.429 320.139 242.438 330.293 207.704 323.332C163.621 314.492 145.798 278.276 165.128 237.507C176.927 212.591 195.81 193.484 216.22 175.685C218.061 174.067 219.839 172.393 222.426 170.036C208.599 172.9 195.984 176.051 183.18 178.016C164.579 180.892 146.019 180.26 127.823 174.915C104.74 168.104 87.6834 153.836 78.8355 131.404C65.0058 96.3363 64.9157 60.3355 75.0685 24.342C78.7508 11.329 81.1556 10.5265 94.5028 14.4158C118.152 21.3001 141.474 29.6997 165.441 35.1051C212.673 45.7665 260.451 53.9541 307.663 64.6885C362.423 77.1715 416.913 90.9509 471.375 104.84C518.337 116.798 564.997 129.887 611.891 142.1C620.265 144.266 625.15 148.508 628.092 156.647C639.187 187.62 639.68 218.175 626.777 248.818C612.53 282.58 581.185 292.013 551.139 271.058C545.77 267.312 541.009 262.751 536.022 258.6C534.601 274.408 534.027 290.561 531.57 306.444C526.856 337.169 517.322 366.329 495.928 389.847C459.402 429.997 405.734 427.739 371.661 385.331C344.984 352.1 338.305 314.568 347.104 273.558C348.591 266.84 350.022 260.184 351.5 253.502Z" fill="#C3D8D1"/>
<path d="M468.145 475.132C454.034 481.857 437.652 481.168 423.199 476.257L423.2 476.257C408.939 471.452 398.066 462.262 387.172 451.778L386.207 450.839C376.266 441.103 367.519 430.224 361.537 417.045L361.163 416.212C353.609 399.242 350.486 380.014 348.703 361.425L348.532 359.599L348.532 359.598L348.224 355.96C347.679 349.158 347.312 342.251 347.479 335.381C335.354 345.681 324.145 356.967 310.985 365.974L309.217 367.164C290.877 379.346 269.814 388.042 247.992 387.271L246.978 387.226C225.643 386.157 200.927 376.462 190.811 354.721L190.393 353.8C181.77 334.394 183.3 310.815 186.65 290.309L186.946 288.529C188.456 279.64 190.437 270.853 192.798 262.232C193.625 259.062 194.542 255.912 195.457 252.765L195.46 252.755C195.55 252.487 195.641 252.096 195.739 251.635C195.773 251.478 195.81 251.314 195.846 251.144C195.51 251.228 195.201 251.303 194.959 251.395L194.947 251.399C191.288 252.581 187.538 253.744 183.804 254.81L183.802 254.811L180.888 255.615C174.074 257.466 167.166 259.135 160.297 260.579L157.582 261.141C143.971 263.914 129.834 265.973 115.984 264.887L115.983 264.887L115.043 264.803C95.2655 262.848 74.7692 249.413 64.8839 230.746L64.4654 229.944C55.8077 213.067 55.3657 193.04 58.5665 174.469C61.9367 154.917 69.117 136.037 78.1693 118.756C83.8982 107.702 90.7117 94.784 100.22 86.9607L100.221 86.9619C100.628 86.6124 101.077 86.5131 101.496 86.6317C101.905 86.7477 102.244 87.0596 102.471 87.4518C102.925 88.2379 102.973 89.4228 102.194 90.3745L102.181 90.3918L102.164 90.4053C100.644 91.7021 99.1789 93.2112 97.8768 94.853L97.8727 94.8592L97.6815 94.6931L97.8718 94.859C88.2761 106.224 81.0391 120.089 75.0178 133.913L75.0177 133.914L74.2864 135.605C66.7903 153.134 61.1404 172.193 60.4166 191.574L60.3898 192.488C59.9306 211.378 65.1638 229.784 78.1821 242.763L78.8176 243.386C86.8718 251.149 97.5437 257.227 108.134 259.967L108.135 259.967C120.3 263.176 133.834 261.359 146.26 259.297L148.731 258.883C164.577 256.227 180.21 252.116 195.455 247.016C195.992 246.827 196.628 246.583 197.259 246.391C197.892 246.198 198.549 246.048 199.14 246.052C199.734 246.057 200.299 246.219 200.693 246.692C201.081 247.157 201.259 247.868 201.207 248.868L201.207 248.867C201.187 249.558 200.978 250.331 200.733 251.068C200.611 251.439 200.477 251.807 200.35 252.156C200.222 252.506 200.101 252.837 200.003 253.14C195.248 269.195 191.41 285.522 189.648 302.266L189.485 303.888C188.491 313.979 188.169 325.176 189.847 335.763C191.524 346.349 195.198 356.306 202.183 363.936L202.184 363.938C210.264 372.861 222.479 378.109 233.666 380.808L234.746 381.061C246.381 383.711 258.359 383.31 269.936 380.409L269.937 380.409C289.966 375.485 308.007 363.807 324.229 350.327L324.228 350.326C330.014 345.438 335.655 340.319 341.223 335.083L341.222 335.082C341.72 334.606 342.307 333.987 342.963 333.313C343.616 332.642 344.334 331.922 345.085 331.258C345.834 330.595 346.622 329.982 347.418 329.527C348.213 329.074 349.032 328.77 349.837 328.743L349.845 328.742C350.662 328.741 351.318 329.066 351.754 329.613C352.186 330.155 352.384 330.891 352.346 331.688L352.345 331.696C352.173 333.77 352.181 335.882 352.189 338.006L352.188 338.008C352.101 353.122 353.701 368.176 356.362 383.043L356.363 383.044C359.382 400.138 364.601 416.482 374.339 430.447L374.807 431.11C382.075 441.341 391.392 449.975 400.616 458.199L400.617 458.199C412.197 468.559 427.464 474.788 442.396 475.498L443.106 475.527C466.816 476.394 483.823 460.841 496.868 440.874C509.558 421.344 518.623 399.058 526.125 376.644L526.125 376.643C530.447 363.882 534.247 350.864 537.411 337.674C534.05 335.015 531.243 331.589 529.353 327.279L529.155 326.816C527.143 322.011 526.455 316.65 526.532 311.457L526.566 309.434C526.617 307.357 526.744 305.15 527.15 303.053C527.691 300.256 528.733 297.629 530.78 295.76L530.78 295.759C532.955 293.754 535.122 293.056 537.154 293.312C539.179 293.568 541.024 294.766 542.576 296.459C545.677 299.839 547.69 305.279 547.705 309.585L547.705 309.586C547.783 314.587 546.289 319.985 545.273 324.803C544.571 328.192 543.827 331.572 543.042 334.943C544.135 335.604 545.283 336.189 546.475 336.705C553.953 339.938 563.143 340.413 571.217 339.618L571.995 339.538C588.146 337.755 605.643 332.222 616.763 318.892L616.764 318.893C629.192 303.913 630.738 282.595 631.172 263.283L631.172 263.282L631.233 260.23C631.49 244.965 631.038 229.682 630.869 214.409C630.695 198.63 630.822 182.869 632.348 167.178L632.5 165.661L632.501 165.658L632.528 165.487C632.702 164.663 633.407 164.294 634.078 164.333C634.79 164.374 635.523 164.877 635.589 165.801L635.589 165.807C636.095 176.419 636.223 187.054 636.244 197.765L636.244 197.767C636.224 206.548 636.324 215.303 636.425 224.06C636.526 232.816 636.627 241.575 636.607 250.359L636.611 255.142C636.583 266.319 636.246 277.589 634.581 288.673L634.58 288.675C631.546 307.905 622.606 325.58 606.106 334.74L605.336 335.161C589.338 343.801 568.267 348.378 550.619 343.952L549.769 343.732L549.768 343.731L548.963 343.502C546.444 342.76 543.998 341.771 541.705 340.512C537.721 356.647 532.818 372.539 527.179 388.051C518.607 411.781 508.014 435.836 492.164 455.098L492.163 455.099L491.54 455.844C485.07 463.519 477.573 470.381 468.817 474.806L468.815 474.807L468.145 475.132ZM542.475 312.546C542.532 312.157 542.589 311.745 542.638 311.358C542.687 310.972 542.729 310.614 542.755 310.334C542.769 310.194 542.778 310.075 542.783 309.983C542.785 309.938 542.786 309.9 542.786 309.871L542.785 309.826L542.785 309.823L542.784 309.812L542.783 309.8C542.706 307.852 541.892 304.42 540.447 301.943C539.725 300.703 538.864 299.737 537.893 299.294C536.943 298.861 535.843 298.908 534.577 299.786L534.406 299.912C533.57 300.566 532.957 301.58 532.521 302.828C532.056 304.158 531.798 305.733 531.673 307.368C531.422 310.639 531.705 314.111 531.893 316.27L531.943 316.777C532.5 321.973 534.195 326.085 536.669 329.31C537.325 330.165 538.038 330.958 538.798 331.694C539.559 328.303 540.276 324.901 540.949 321.491C541.405 318.845 541.946 316.246 542.309 313.599L542.311 313.591L542.475 312.546Z" fill="#231F20" stroke="black" stroke-width="0.5"/>
</svg>
