<svg width="392" height="419" viewBox="0 0 392 419" fill="none" xmlns="http://www.w3.org/2000/svg">
<path d="M243.026 72.0273C224.642 73.2141 207.252 75.4497 193.865 76.5537C145.477 80.5834 77.3803 93.252 63.358 148.646C46.2994 216.073 75.0065 277.346 108.158 334.7C123.919 361.941 146.498 392.909 177.358 403.894C205.458 413.912 248.077 409.993 255.751 376.238C266.792 327.661 210.62 290.705 212.497 246.461C237.726 268.128 262.569 286.841 297.845 267.852C342.121 244.033 280.152 189.798 247.774 197.83C289.426 193.91 381.179 157.285 345.019 100.097C326.994 71.6409 282.747 69.4605 243.026 72.0273Z" fill="#EFD5F2"/>
<mask id="mask0_451_2745" style="mask-type:luminance" maskUnits="userSpaceOnUse" x="58" y="71" width="296" height="338">
<path d="M243.026 72.0273C224.642 73.2141 207.252 75.4497 193.865 76.5537C145.477 80.5834 77.3803 93.252 63.358 148.646C46.2994 216.073 75.0065 277.346 108.158 334.7C123.919 361.941 146.498 392.909 177.358 403.894C205.458 413.912 248.077 409.993 255.751 376.238C266.792 327.661 210.62 290.705 212.497 246.461C237.726 268.128 262.569 286.841 297.845 267.852C342.121 244.033 280.152 189.798 247.774 197.83C289.426 193.91 381.179 157.285 345.019 100.097C326.994 71.6409 282.747 69.4605 243.026 72.0273Z" fill="white"/>
</mask>
<g mask="url(#mask0_451_2745)">
<path d="M243.026 72.0273C224.642 73.2141 207.252 75.4497 193.865 76.5537C145.477 80.5834 77.3803 93.252 63.358 148.646C46.2994 216.073 75.0065 277.346 108.158 334.7C123.919 361.941 146.498 392.909 177.358 403.894C205.458 413.912 248.077 409.993 255.751 376.238C266.792 327.661 210.62 290.705 212.497 246.461C237.726 268.128 262.569 286.841 297.845 267.852C342.121 244.033 280.152 189.798 247.774 197.83C289.426 193.91 381.179 157.285 345.019 100.097C326.994 71.6409 282.747 69.4605 243.026 72.0273Z" fill="#EFD5F2"/>
</g>
<path d="M33.1465 45.9004C77.0575 10.3732 133.981 -1.84042 189.451 1.19531L191.457 1.30957C233.596 3.78563 276.441 11.7311 310.775 37.624L312.081 38.6162C339.413 59.58 361.724 87.8702 376.117 119.145L376.702 120.426C388.719 146.992 396.448 178.793 387.096 207.387L386.63 208.768C375.695 240.206 345.576 255.916 314.485 261.149L313.005 261.391C307.855 262.205 302.674 262.784 297.478 263.167C304.421 274.236 307.781 285.478 308.302 296.569C308.969 310.775 304.98 324.716 297.931 337.716C284.056 363.304 258.309 385.279 232.762 398.517L231.545 399.14C204.213 413.001 171.753 421.903 140.968 416.479L139.503 416.21C109.409 410.457 88.704 389.176 80.959 360.063L80.5996 358.671C80.4908 358.235 80.5758 357.847 80.7832 357.545C80.987 357.248 81.2997 357.048 81.6318 356.957C81.9639 356.866 82.3336 356.88 82.6543 357.036C82.9813 357.195 83.2385 357.494 83.3477 357.93L83.7178 359.358C85.6131 366.485 88.1639 373.416 91.7959 379.851L92.5381 381.135C108.309 407.826 135.386 416.272 163.962 414.673C192.998 413.048 223.54 401.049 245.206 387.328L246.327 386.612C269.844 371.493 292.202 350.072 301.316 323.081L301.763 321.713C308.358 300.798 304.074 280.582 292.888 263.454C288.832 263.664 284.771 263.764 280.711 263.764L278.551 263.755C273.835 263.716 270.022 263.508 267.301 261.941C264.544 260.354 262.957 257.41 262.577 252.067V252.066C262.413 249.726 262.124 244.583 262.946 240.415C263.356 238.336 264.051 236.454 265.216 235.295C265.803 234.71 266.51 234.309 267.354 234.162C268.196 234.016 269.156 234.127 270.246 234.535L270.595 234.672C274.203 236.142 277.992 239.427 281.464 243.05C285.053 246.796 288.335 250.938 290.759 253.884L291.823 255.199C292.93 256.592 293.974 257.989 294.961 259.389C301.009 259.009 307.039 258.365 313.021 257.375L314.539 257.118C330.217 254.382 345.795 249.249 358.74 239.831L359.799 239.043C381.812 222.342 389.381 195.359 386.493 168.522V168.521C380.093 109.003 333.678 48.7388 279.558 24.0762L278.277 23.501C261.064 15.8602 241.91 12.341 223.277 9.61914L219.559 9.08496C194.915 5.58195 169.767 4.61962 144.975 7.2168L142.576 7.47949C88.362 13.6738 40.7346 38.798 6.21582 81.0967L5.40332 82.0986C4.92248 82.6983 4.2919 82.9495 3.65332 82.9434C3.02295 82.9373 2.39482 82.6814 1.88965 82.2891C1.38472 81.8968 0.983632 81.3529 0.824219 80.748C0.662752 80.135 0.753054 79.4688 1.21875 78.8672L2.07715 77.7607C10.9804 66.3577 20.9273 55.9422 32.1113 46.7441L33.1465 45.9004ZM269.675 240.289C268.915 240.234 268.374 240.441 267.966 240.851C267.546 241.271 267.244 241.93 267.026 242.822C266.81 243.711 266.683 244.804 266.597 246.067C266.527 247.204 266.302 249.103 266.264 251.002C266.244 251.947 266.272 252.877 266.388 253.691C266.504 254.511 266.707 255.187 267.019 255.643H267.018C268.422 257.693 270.495 258.742 272.788 259.277C275.087 259.814 277.582 259.829 279.811 259.829L281.895 259.825C284.677 259.808 287.46 259.747 290.24 259.634C286.606 254.676 282.388 250.008 277.688 245.693V245.692C277.311 245.345 276.919 244.955 276.519 244.553C276.117 244.15 275.706 243.735 275.286 243.334C274.443 242.529 273.578 241.795 272.711 241.338V241.337C271.438 240.671 270.446 240.345 269.675 240.289Z" fill="#231F20" stroke="black" stroke-width="0.5"/>
</svg>
