<svg width="28" height="28" viewBox="0 0 28 28" fill="none" xmlns="http://www.w3.org/2000/svg">
<path d="M8.3601 0.674438C3.97538 0.674438 0.408691 4.12996 0.408691 8.3752V19.3732C0.408691 23.6174 3.97868 27.0697 8.36453 27.0697H19.7269C24.1116 27.0697 27.6783 23.6142 27.6783 19.3689V8.3709C27.6783 4.12677 24.1083 0.674438 19.7224 0.674438H8.3601ZM21.9971 5.07365C22.6243 5.07365 23.1333 5.56636 23.1333 6.17345C23.1333 6.78054 22.6243 7.27325 21.9971 7.27325C21.3699 7.27325 20.8609 6.78054 20.8609 6.17345C20.8609 5.56636 21.3699 5.07365 21.9971 5.07365ZM14.0435 7.27325C17.8033 7.27325 20.8609 10.2328 20.8609 13.8721C20.8609 17.5113 17.8033 20.4709 14.0435 20.4709C10.2837 20.4709 7.22608 17.5113 7.22608 13.8721C7.22608 10.2328 10.2837 7.27325 14.0435 7.27325ZM14.0435 9.47285C12.8381 9.47285 11.6821 9.93634 10.8297 10.7614C9.97739 11.5864 9.49855 12.7053 9.49855 13.8721C9.49855 15.0388 9.97739 16.1578 10.8297 16.9828C11.6821 17.8078 12.8381 18.2713 14.0435 18.2713C15.2489 18.2713 16.4049 17.8078 17.2572 16.9828C18.1096 16.1578 18.5884 15.0388 18.5884 13.8721C18.5884 12.7053 18.1096 11.5864 17.2572 10.7614C16.4049 9.93634 15.2489 9.47285 14.0435 9.47285Z" fill="white"/>
</svg>
