<svg width="403" height="363" viewBox="0 0 403 363" fill="none" xmlns="http://www.w3.org/2000/svg">
<path d="M377.4 185.79C357.258 276.563 298.059 363 200.19 363C102.321 363 -6.41756e-06 288.898 -4.2435e-06 191.029C-2.06944e-06 93.1596 97.6628 0 195.532 0C293.401 0 398.599 90.2436 377.4 185.79Z" fill="#F0BC6A"/>
<path d="M174.655 268.176C180.139 290.175 195.648 306.188 218.203 310.291C241.26 314.497 265.608 307.736 286.047 297.169C306.601 286.537 326.523 270.292 336.304 248.821C345.645 228.305 341.671 206.577 326.897 189.764C324.214 186.719 318.227 178.513 313.775 179.055C308.665 179.687 303.582 187.029 304.575 191.932C306.059 199.261 315.169 198.306 320.859 198.319C329.246 198.332 337.646 197.803 345.929 196.422C368.987 192.564 391.245 180.797 398.974 157.416C406.083 135.933 400.019 112.037 390.806 92.1788C379.864 68.6308 362.781 47.3796 341.839 31.9864C316.317 13.2125 284.137 7.76743 253.066 6.24488C212.396 4.24491 170.849 13.4964 138.875 39.7798C130.475 46.6829 123.043 54.5537 116.398 63.16C115.288 64.5922 117.779 66.5406 118.927 65.1083C144.178 33.6896 179.365 14.9802 219.312 10.3222C238.047 8.14162 257.079 8.76097 275.737 11.3545C290.382 13.3931 305.659 15.9221 319.285 21.922C340.484 31.2509 358.458 47.599 372.251 65.9987C385.774 84.037 396.535 105.521 399.128 128.152C401.438 148.255 395.838 168.668 379.013 181.093C369.181 188.358 357.245 192.19 345.31 194.203C337.246 195.558 329.039 196.061 320.859 196.061C315.698 196.061 307.84 197.235 306.678 190.384C306.278 187.996 308.872 185.003 310.653 183.609C313.298 181.532 315.143 181.532 317.556 183.648C334.226 198.216 343.929 218.757 337.155 240.744C330.833 261.273 313.93 277.569 296.317 288.924C264.421 309.478 205.854 325.155 182.461 284.059C179.558 278.963 177.584 273.453 176.165 267.789C175.919 266.782 174.423 267.195 174.655 268.176Z" fill="#231F20"/>
<path d="M86.4369 226.486H80.3467L78.5016 221.506H69.0308L67.1857 226.486H61.0955L71.1469 201.596H76.3984L86.4369 226.486ZM73.792 209.286H73.7275L70.9533 216.525H76.5662L73.792 209.286Z" fill="#231F20"/>
<path d="M105.766 217.648C105.766 223.802 102.385 226.938 96.0497 226.938C89.7143 226.938 86.3337 223.802 86.3337 217.648L86.3337 201.596H92.0111L92.0111 215.983C92.0111 220.151 93.2755 221.351 96.0497 221.351C98.8238 221.351 100.088 220.138 100.088 215.983L100.088 201.596H105.766L105.766 217.648Z" fill="#231F20"/>
<path d="M107.572 201.596H125.068L125.068 206.577H119.159L119.159 226.486H113.482L113.482 206.577H107.572L107.572 201.596Z" fill="#231F20"/>
<path d="M137.598 201.144C144.501 201.144 150.114 206.757 150.114 214.021C150.114 221.299 144.746 226.937 137.598 226.937C130.23 226.937 125.043 221.299 125.043 214.021C125.043 206.757 130.746 201.144 137.598 201.144ZM137.598 221.454C142.127 221.454 143.997 217.738 143.997 214.034C143.997 210.318 142.01 206.615 137.598 206.615C133.223 206.615 131.172 210.331 131.172 214.034C131.159 217.738 132.94 221.454 137.598 221.454Z" fill="#231F20"/>
<path d="M158.281 226.486H152.604L152.604 201.596H158.281L168.178 217.041H168.242L168.242 201.596H173.919L173.919 226.486H168.242L158.346 211.041H158.281L158.281 226.486Z" fill="#231F20"/>
<path d="M188.964 201.144C195.867 201.144 201.48 206.757 201.48 214.021C201.48 221.299 196.113 226.937 188.964 226.937C181.597 226.937 176.41 221.299 176.41 214.021C176.41 206.757 182.113 201.144 188.964 201.144ZM188.964 221.454C193.493 221.454 195.364 217.738 195.364 214.034C195.364 210.318 193.377 206.615 188.964 206.615C184.59 206.615 182.539 210.331 182.539 214.034C182.539 217.738 184.319 221.454 188.964 221.454Z" fill="#231F20"/>
<path d="M223.377 211.738H223.222L218.125 226.344H214.745L209.648 211.738H209.493L208.319 226.486H202.642L204.874 201.596H210.912L216.435 215.957L221.957 201.596H227.996L230.228 226.486H224.551L223.377 211.738Z" fill="#231F20"/>
<path d="M238.189 226.486H232.512L232.512 201.596H238.189L248.086 217.041H248.15L248.15 201.596H253.827L253.827 226.486H248.15L238.254 211.041H238.189L238.189 226.486Z" fill="#231F20"/>
<path d="M262.343 226.486H256.666L256.666 201.596H262.343L262.343 226.486Z" fill="#231F20"/>
<path d="M78.1405 242.77H69.4181L69.4181 247.724H77.4695L77.4695 252.705H69.4181L69.4181 262.692H63.7407L63.7407 237.802H78.1276L78.1276 242.77H78.1405Z" fill="#231F20"/>
<path d="M95.0953 242.769H86.5277L86.5277 247.724H94.734L94.734 252.704H86.5277L86.5277 257.711H95.0953L95.0953 262.691H80.8503L80.8503 237.802H95.0953L95.0953 242.769Z" fill="#231F20"/>
<path d="M115.236 239.699L112.94 244.228C112.94 244.228 110.462 242.512 107.895 242.512C105.959 242.512 104.94 243.389 104.94 244.744C104.94 246.137 107.288 247.131 110.127 248.331C112.901 249.505 115.946 251.866 115.946 255.118C115.946 261.066 111.417 263.143 106.566 263.143C100.746 263.143 97.2109 259.853 97.2109 259.853L100.05 255.079C100.05 255.079 103.366 257.879 106.14 257.879C107.378 257.879 109.727 257.763 109.727 255.44C109.727 253.634 107.069 252.821 104.114 251.337C101.121 249.853 99.3786 247.531 99.3786 244.937C99.3786 240.292 103.482 237.337 107.495 237.337C112.036 237.337 115.236 239.699 115.236 239.699Z" fill="#231F20"/>
<path d="M117.107 237.802H134.604L134.604 242.783H128.694L128.694 262.692H123.017L123.017 242.783H117.107L117.107 237.802Z" fill="#231F20"/>
<path d="M142.32 262.692H136.643L136.643 237.802H142.32L142.32 262.692Z" fill="#231F20"/>
<path d="M143.739 237.802H150.139L156.41 254.15L162.681 237.802H169.081L158.642 262.691H154.178L143.739 237.802Z" fill="#231F20"/>
<path d="M187.726 262.691H181.635L179.79 257.711H170.319L168.474 262.691H162.384L172.435 237.802H177.687L187.726 262.691ZM175.081 245.492H175.016L172.242 252.73H177.855L175.081 245.492Z" fill="#231F20"/>
<path d="M195.106 257.711H203.674L203.674 262.691H189.429L189.429 237.802H195.106L195.106 257.711Z" fill="#231F20"/>
<path d="M72.3212 293.904H83.8435L83.8435 298.884H62.4246L74.734 278.975H64.1794L64.1794 273.995H84.6693L72.3212 293.904ZM73.5211 267.504L78.1404 264.124L80.192 266.872L73.5211 271.762L66.8503 266.872L68.9019 264.124L73.5211 267.504Z" fill="#231F20"/>
<path d="M100.424 278.975H91.8563L91.8563 283.93H100.063L100.063 288.911H91.8563L91.8563 293.917H100.424L100.424 298.898H86.179L86.179 274.008H100.424L100.424 278.975Z" fill="#231F20"/>
<path d="M108.604 298.885H102.927L102.927 273.995H108.604L118.501 289.44H118.565L118.565 273.995H124.243L124.243 298.885H118.565L108.669 283.44H108.604L108.604 298.885Z" fill="#231F20"/>
<path d="M151.288 298.885H145.197L143.352 293.904H133.881L132.036 298.885H125.946L135.997 273.995H141.249L151.288 298.885ZM138.643 281.685H138.578L135.804 288.924H141.417L138.643 281.685Z" fill="#231F20"/>
<path d="M267.711 160.513C256.782 157.764 216.125 158.526 216.125 158.526C216.125 158.526 253.724 104.965 256.744 98.3331C223.996 99.0815 172.126 108.346 172.126 108.346L177.494 77.3012C177.494 77.3012 195.79 75.0432 207.764 69.9723C218.254 65.5337 226.848 54.6823 227.286 51.792C218.667 53.2371 177.661 61.637 162.513 64.6176C160.978 74.9529 154.926 111.714 154.926 111.714L135.83 115.765L143.017 68.8498C132.94 70.7723 124.965 72.7465 118.269 79.0173C109.004 87.6881 85.5597 129.378 85.5597 129.378C85.5597 129.378 71.9729 134.771 68.7471 137.016C68.8374 138.178 81.4565 136.41 81.4565 136.41C56.4892 181.261 56.4893 188.512 56.4893 188.512C56.4893 188.512 57.3667 188.538 59.9215 186.319C65.0827 179.506 93.9208 134.487 93.9208 134.487L117.508 130.887C117.508 130.887 108.192 188.77 111.172 188.202C125.972 169.932 133.907 128.449 133.907 128.449L152.784 125.713C152.784 125.713 144.617 186.628 147.326 185.119C159.958 175.48 169.687 123.339 169.687 123.339L223.622 116.384C223.622 116.384 185.429 170.28 183.919 175.777C211.351 174.564 263.04 164.848 267.711 160.513ZM119.211 119.881L99.5079 125.739L124.295 86.7978L119.211 119.881Z" fill="black"/>
<path d="M224.667 66.656L235.441 90.6169C235.441 90.6169 242.331 89.675 249.182 89.1847L269.866 57.1723C253.582 56.5401 242.331 78.5139 242.331 78.5139C242.331 78.5139 234.538 65.4561 224.667 66.656Z" fill="black"/>
</svg>
