<svg width="328" height="339" viewBox="0 0 328 339" fill="none" xmlns="http://www.w3.org/2000/svg">
<path d="M106.211 244.485C117.826 247.555 129.043 249.771 137.551 251.859C168.31 259.379 213.046 265.635 233.18 234.279C257.682 196.108 252.607 152.274 243.973 109.944C239.862 89.8356 232.306 66.0116 215.494 52.8324C200.189 40.8217 173.02 34.4266 161.29 53.7145C144.41 81.4717 171.502 115.951 161.186 142.925C150.067 124.305 138.575 107.591 112.829 112.035C80.5184 117.604 107.62 163.968 129.306 165.701C102.735 159.506 38.4128 163.171 48.9422 206.021C54.2013 227.349 81.1148 237.854 106.211 244.485Z" fill="#FEB7A1"/>
<mask id="mask0_602_14124" style="mask-type:luminance" maskUnits="userSpaceOnUse" x="47" y="41" width="205" height="217">
<path d="M106.211 244.485C117.826 247.555 129.043 249.771 137.551 251.859C168.31 259.379 213.046 265.635 233.18 234.279C257.682 196.108 252.607 152.274 243.973 109.944C239.862 89.8356 232.306 66.0116 215.494 52.8324C200.189 40.8217 173.02 34.4266 161.29 53.7145C144.41 81.4717 171.502 115.951 161.186 142.925C150.067 124.305 138.575 107.591 112.829 112.035C80.5184 117.604 107.62 163.968 129.306 165.701C102.735 159.506 38.4128 163.171 48.9422 206.021C54.2013 227.349 81.1148 237.854 106.211 244.485Z" fill="white"/>
</mask>
<g mask="url(#mask0_602_14124)">
<path d="M106.211 244.485C117.826 247.555 129.043 249.771 137.551 251.859C168.31 259.379 213.046 265.635 233.18 234.279C257.682 196.108 252.607 152.274 243.973 109.944C239.862 89.8356 232.306 66.0116 215.494 52.8324C200.189 40.8217 173.02 34.4266 161.29 53.7145C144.41 81.4717 171.502 115.951 161.186 142.925C150.067 124.305 138.575 107.591 112.829 112.035C80.5184 117.604 107.62 163.968 129.306 165.701C102.735 159.506 38.4128 163.171 48.9422 206.021C54.2013 227.349 81.1148 237.854 106.211 244.485Z" fill="#FEB7A1"/>
</g>
<path d="M229.818 304.455C195.506 316.982 158.081 312.713 124.656 299.458L124.655 299.457L122.222 298.481C97.0974 288.279 72.7598 274.564 57.1214 251.792L56.5186 250.907C43.945 232.274 35.9953 210.149 33.5641 187.816L33.3769 185.984C31.5926 167.291 33.5202 146.429 45.0508 130.909L45.6261 130.15C58.9219 112.934 80.8393 109.451 101.165 112.651L102.132 112.808C105.441 113.363 108.721 114.066 111.971 114.889C110 106.646 110.255 99.0307 112.221 92.0872C114.753 83.1455 120.116 75.336 127.174 68.7468C141.065 55.7783 161.553 47.5101 180.104 44.6076L180.986 44.4734C200.768 41.5551 222.707 42.7658 240.646 52.5026L241.497 52.9726C258.95 62.7758 267.365 80.2544 266.129 99.8917L266.063 100.828C266.038 101.145 265.893 101.39 265.683 101.55C265.477 101.705 265.221 101.768 264.979 101.755C264.737 101.741 264.489 101.65 264.306 101.47C264.117 101.285 264.012 101.021 264.037 100.704L264.103 99.7461C264.405 94.9516 264.263 90.1455 263.35 85.4233L263.157 84.4772C258.935 64.7492 243.971 53.9409 225.987 49.022C207.711 44.0235 186.355 45.1226 170.127 49.1224L168.445 49.5491C151.046 54.0896 133.207 62.6638 122.181 77.2132L121.622 77.9655C113.244 89.4958 111.706 102.838 115.058 115.71C117.594 116.416 120.111 117.191 122.607 118.026L123.942 118.48C126.845 119.478 129.184 120.401 130.561 121.954C131.877 123.438 132.282 125.45 131.607 128.494L131.459 129.117C131.076 130.597 130.187 133.849 128.81 136.268C128.124 137.472 127.295 138.512 126.311 139C125.813 139.247 125.274 139.353 124.702 139.266C124.132 139.179 123.548 138.903 122.95 138.418L122.949 138.417L122.573 138.095C120.71 136.408 119.102 133.665 117.749 130.801C116.303 127.738 115.129 124.493 114.241 122.171L113.854 121.136C113.463 120.06 113.111 118.994 112.793 117.938C108.992 116.927 105.148 116.082 101.262 115.459L100.271 115.305C90.0162 113.754 79.3342 113.707 69.3968 116.847L68.5803 117.114C51.8181 122.784 41.6255 137.49 37.72 154.324L37.5366 155.14C29.186 193.242 45.4091 240.085 73.7552 266.517L74.4268 267.138C83.4819 275.417 94.5909 281.552 105.55 287.09L107.739 288.19C122.25 295.453 137.597 301.249 153.458 304.771L154.995 305.105C189.51 312.43 223.869 306.897 253.784 288.251L255.205 287.353C255.65 287.067 256.12 287.039 256.537 287.184C256.947 287.325 257.296 287.627 257.536 287.987C257.776 288.347 257.919 288.786 257.891 289.215C257.863 289.653 257.655 290.071 257.219 290.363L255.696 291.372C248.052 296.365 239.991 300.578 231.449 303.846L229.818 304.455ZM124.581 134.83C125.019 135.013 125.37 134.995 125.681 134.839C126.007 134.676 126.32 134.347 126.636 133.845C126.95 133.347 127.252 132.703 127.567 131.941C127.848 131.244 128.376 130.127 128.792 128.962C128.999 128.383 129.173 127.807 129.268 127.286C129.365 126.76 129.377 126.316 129.284 125.989L129.195 125.707C128.716 124.326 127.721 123.345 126.506 122.597C125.205 121.795 123.674 121.272 122.294 120.811C120.199 120.106 118.089 119.44 115.966 118.822C117.18 122.58 118.802 126.281 120.786 129.868L120.787 129.869C120.949 130.163 121.111 130.488 121.275 130.819C121.44 131.152 121.609 131.492 121.785 131.826C122.139 132.496 122.516 133.12 122.949 133.573L122.949 133.572C123.595 134.244 124.131 134.642 124.581 134.83Z" fill="#231F20" stroke="black" stroke-width="0.5"/>
</svg>
