<svg width="599" height="549" viewBox="0 0 599 549" fill="none" xmlns="http://www.w3.org/2000/svg">
<path d="M575.568 408.772C566.01 404.651 556.725 400.38 547.423 395.492C538.21 390.641 528.85 386.198 519.429 381.847C526.509 376.465 533.611 371.104 540.761 365.806C552.773 356.881 564.925 348.103 577.313 339.618C591.704 329.768 581.32 318.161 576.598 306.259C570.083 289.784 559.6 292.311 546.927 300.084C535.363 307.167 524.384 314.876 513.66 323.188C506.173 328.994 498.542 334.61 490.866 340.185C489.499 329.682 487.85 319.198 486.223 308.712C483.854 293.432 483.246 278.106 480.542 263.024C480.031 260.138 480.188 254.756 478.807 252.213C476.786 248.518 472.598 249.404 468.935 249.66C462.953 250.064 457.036 250.796 451.175 252.076C446.968 253.008 438.923 253.499 435.707 256.313C430.058 261.25 432.319 272.116 433.144 278.563C434.487 289.023 435.535 299.302 436.081 309.901C436.667 321.47 437.772 332.984 438.964 344.493C430.539 340.388 422.154 336.236 413.864 331.858C401.858 325.527 389.719 319.847 377.125 314.881C363.302 309.418 352.53 308.779 348.958 326.141C346.362 338.665 338.131 351.925 354.002 359.113C367.676 365.315 381.133 371.862 394.511 378.547C402.494 382.547 410.438 386.616 418.382 390.686C409.836 396.626 401.341 402.673 393.085 409.058C384.767 415.492 376.366 421.312 367.655 427.042C362.285 430.568 352.651 435.826 352.59 443.39C352.561 447.703 357.355 454.273 359.388 458.144C362.213 463.535 365.496 468.587 369.054 473.511C371.226 476.512 373.256 480.34 377.34 479.526C380.133 478.95 384.083 475.36 386.58 473.896C399.631 466.254 411.524 456.828 424.53 448.813C432.321 444.004 440.156 439.215 447.872 434.257C448.531 442.527 449.08 450.783 449.5 459.068C450.179 472.776 451.497 486.266 453.648 499.836C455.99 514.698 460.901 524.465 477.46 518.898C489.435 514.862 504.863 515.447 502.959 497.904C501.32 482.798 500.072 467.69 499 452.592C498.47 444.977 497.982 437.337 497.518 429.717C506.062 433.306 514.682 436.713 523.28 440.121C537.463 445.76 550.81 452.977 564.99 458.24C567.709 459.238 572.203 462.112 575.058 462.173C579.223 462.283 580.57 458.152 582.186 454.821C584.842 449.367 587.207 443.8 589.059 438.022C590.383 433.87 593.987 426.565 593.214 422.303C591.845 414.83 581.476 411.313 575.568 408.772Z" fill="#F2C25A"/>
<mask id="mask0_601_12226" style="mask-type:luminance" maskUnits="userSpaceOnUse" x="344" y="249" width="250" height="272">
<path d="M575.568 408.772C566.01 404.651 556.725 400.38 547.423 395.492C538.21 390.641 528.85 386.198 519.429 381.847C526.509 376.465 533.611 371.104 540.761 365.806C552.773 356.881 564.925 348.103 577.313 339.618C591.704 329.768 581.32 318.161 576.598 306.259C570.083 289.784 559.6 292.311 546.927 300.084C535.363 307.167 524.384 314.876 513.66 323.188C506.173 328.994 498.542 334.61 490.866 340.185C489.499 329.682 487.85 319.198 486.223 308.712C483.854 293.432 483.246 278.106 480.542 263.024C480.031 260.138 480.188 254.756 478.807 252.213C476.786 248.518 472.598 249.404 468.935 249.66C462.953 250.064 457.036 250.796 451.175 252.076C446.968 253.008 438.923 253.499 435.707 256.313C430.058 261.25 432.319 272.116 433.144 278.563C434.487 289.023 435.535 299.302 436.081 309.901C436.667 321.47 437.772 332.984 438.964 344.493C430.539 340.388 422.154 336.236 413.864 331.858C401.858 325.527 389.719 319.847 377.125 314.881C363.302 309.418 352.53 308.779 348.958 326.141C346.362 338.665 338.131 351.925 354.002 359.113C367.676 365.315 381.133 371.862 394.511 378.547C402.494 382.547 410.438 386.616 418.382 390.686C409.836 396.626 401.341 402.673 393.085 409.058C384.767 415.492 376.366 421.312 367.655 427.042C362.285 430.568 352.651 435.826 352.59 443.39C352.561 447.703 357.355 454.273 359.388 458.144C362.213 463.535 365.496 468.587 369.054 473.511C371.226 476.512 373.256 480.34 377.34 479.526C380.133 478.95 384.083 475.36 386.58 473.896C399.631 466.254 411.524 456.828 424.53 448.813C432.321 444.004 440.156 439.215 447.872 434.257C448.531 442.527 449.08 450.783 449.5 459.068C450.179 472.776 451.497 486.266 453.648 499.836C455.99 514.698 460.901 524.465 477.46 518.898C489.435 514.862 504.863 515.447 502.959 497.904C501.32 482.798 500.072 467.69 499 452.592C498.47 444.977 497.982 437.337 497.518 429.717C506.062 433.306 514.682 436.713 523.28 440.121C537.463 445.76 550.81 452.977 564.99 458.24C567.709 459.238 572.203 462.112 575.058 462.173C579.223 462.283 580.57 458.152 582.186 454.821C584.842 449.367 587.207 443.8 589.059 438.022C590.383 433.87 593.987 426.565 593.214 422.303C591.845 414.83 581.476 411.313 575.568 408.772Z" fill="white"/>
</mask>
<g mask="url(#mask0_601_12226)">
<path d="M575.568 408.772C566.01 404.651 556.725 400.38 547.423 395.492C538.21 390.641 528.85 386.198 519.429 381.847C526.509 376.465 533.611 371.104 540.761 365.806C552.773 356.881 564.925 348.103 577.313 339.618C591.704 329.768 581.32 318.161 576.598 306.259C570.083 289.784 559.6 292.311 546.927 300.084C535.363 307.167 524.384 314.876 513.66 323.188C506.173 328.994 498.542 334.61 490.866 340.185C489.499 329.682 487.85 319.198 486.223 308.712C483.854 293.432 483.246 278.106 480.542 263.024C480.031 260.138 480.188 254.756 478.807 252.213C476.786 248.518 472.598 249.404 468.935 249.66C462.953 250.064 457.036 250.796 451.175 252.076C446.968 253.008 438.923 253.499 435.707 256.313C430.058 261.25 432.319 272.116 433.144 278.563C434.487 289.023 435.535 299.302 436.081 309.901C436.667 321.47 437.772 332.984 438.964 344.493C430.539 340.388 422.154 336.236 413.864 331.858C401.858 325.527 389.719 319.847 377.125 314.881C363.302 309.418 352.53 308.779 348.958 326.141C346.362 338.665 338.131 351.925 354.002 359.113C367.676 365.315 381.133 371.862 394.511 378.547C402.494 382.547 410.438 386.616 418.382 390.686C409.836 396.626 401.341 402.673 393.085 409.058C384.767 415.492 376.366 421.312 367.655 427.042C362.285 430.568 352.651 435.826 352.59 443.39C352.561 447.703 357.355 454.273 359.388 458.144C362.213 463.535 365.496 468.587 369.054 473.511C371.226 476.512 373.256 480.34 377.34 479.526C380.133 478.95 384.083 475.36 386.58 473.896C399.631 466.254 411.524 456.828 424.53 448.813C432.321 444.004 440.156 439.215 447.872 434.257C448.531 442.527 449.08 450.783 449.5 459.068C450.179 472.776 451.497 486.266 453.648 499.836C455.99 514.698 460.901 524.465 477.46 518.898C489.435 514.862 504.863 515.447 502.959 497.904C501.32 482.798 500.072 467.69 499 452.592C498.47 444.977 497.982 437.337 497.518 429.717C506.062 433.306 514.682 436.713 523.28 440.121C537.463 445.76 550.81 452.977 564.99 458.24C567.709 459.238 572.203 462.112 575.058 462.173C579.223 462.283 580.57 458.152 582.186 454.821C584.842 449.367 587.207 443.8 589.059 438.022C590.383 433.87 593.987 426.565 593.214 422.303C591.845 414.83 581.476 411.313 575.568 408.772Z" fill="#F2C25A"/>
</g>
<path d="M427.887 216.186C432.343 311.488 397.521 412.721 301.937 438.342C206.352 463.962 86.7306 417.244 60.713 320.179C34.6955 223.114 105.299 105.142 200.883 79.5216C296.467 53.901 423.196 115.873 427.887 216.186Z" fill="#FEB7A1"/>
<path d="M342.057 285.175C328.623 285.33 282.109 298.748 282.109 298.748C282.109 298.748 308.592 224.6 309.976 215.914C272.555 226.881 215.794 253.692 215.794 253.692L212.256 215.779C212.256 215.779 232.597 207.505 244.778 197.892C255.449 189.471 261.935 174.154 261.531 170.654C252.067 175.009 207.542 197.442 191.055 205.591C192.518 218.126 197.075 262.929 197.075 262.929L176.388 273.547L169.961 216.535C158.974 221.882 150.424 226.656 144.684 236.034C136.759 249.023 122.844 304.935 122.844 304.935C122.844 304.935 108.908 315.426 105.91 319.038C106.372 320.365 120.336 314.411 120.336 314.411C105.667 374.486 107.936 382.952 107.936 382.952C107.936 382.952 108.952 382.707 111.198 379.325C114.995 369.775 134.071 308.302 134.071 308.302L160.058 296.832C160.058 296.832 167.463 367.309 170.71 365.719C181.999 339.824 178.148 288.932 178.148 288.932L198.999 279.924C198.999 279.924 208.671 353.577 211.318 350.996C222.828 335.839 217.682 271.946 217.682 271.946L277.52 247.199C277.52 247.199 250.469 321.919 250.461 328.812C281.65 318.96 338.04 291.664 342.057 285.175ZM158.566 283.492L137.736 296.413L154.054 243.289L158.566 283.492Z" fill="black"/>
<path d="M263.166 188.813L283.051 213.474C283.051 213.474 290.681 210.249 298.404 207.568L312.167 163.797C293.242 168.082 287.187 197.214 287.187 197.214C287.187 197.214 274.157 184.375 263.166 188.813Z" fill="black"/>
<path d="M216.892 129.434L213.144 104.639L220.289 103.592C222.023 103.331 223.687 103.414 225.281 103.828C226.862 104.245 228.301 104.931 229.602 105.898C230.891 106.868 231.97 108.057 232.817 109.472C233.676 110.883 234.235 112.469 234.487 114.206C234.754 115.952 234.679 117.613 234.292 119.209C233.905 120.805 233.224 122.249 232.273 123.535C231.322 124.821 230.138 125.884 228.736 126.734C227.335 127.585 225.77 128.126 224.025 128.391L216.892 129.434ZM221.812 123.422L222.583 123.311C223.586 123.164 224.462 122.848 225.242 122.367C226.021 121.887 226.66 121.282 227.172 120.548C227.683 119.814 228.035 118.987 228.254 118.06C228.461 117.137 228.487 116.14 228.328 115.097C228.169 114.055 227.852 113.122 227.39 112.296C226.929 111.471 226.329 110.777 225.631 110.218C224.921 109.662 224.121 109.266 223.242 109.027C222.363 108.788 221.42 108.756 220.417 108.903L219.646 109.014L221.812 123.422Z" fill="black"/>
<path d="M240.022 126.789L239.426 101.746L245.197 101.65L245.793 126.693L240.022 126.789Z" fill="black"/>
<path d="M254.362 127.516C252.04 127.325 250.097 126.354 248.539 124.628L250.774 119.96C251.875 121.13 252.897 121.751 253.813 121.831C254.607 121.903 255.259 121.647 255.777 121.087C256.279 120.519 256.585 119.718 256.664 118.666L257.902 102.206L263.656 102.698L262.296 120.642C262.122 123.035 261.32 124.824 259.919 126.027C258.512 127.204 256.671 127.711 254.362 127.516Z" fill="black"/>
<path d="M263.749 127.414L278.976 105.346L284.211 106.588L288.496 133.287L282.434 131.847L281.77 126.68L272.626 124.506L269.824 128.851L263.749 127.414ZM275.643 119.967L280.95 121.23L279.853 113.698L275.643 119.967Z" fill="black"/>
<path d="M290.387 134.463L299.378 111.204L304.754 113.371L297.597 131.865L305.443 135.025L303.596 139.793L290.387 134.463Z" fill="black"/>
<path d="M314.791 146.681C313.294 145.78 312.071 144.656 311.107 143.301C310.142 141.945 309.463 140.458 309.07 138.841C308.677 137.224 308.596 135.577 308.824 133.888C309.053 132.199 309.621 130.582 310.516 129.04C311.412 127.498 312.535 126.206 313.88 125.195C315.225 124.183 316.685 123.453 318.251 123.019C319.818 122.586 321.432 122.479 323.065 122.692C324.698 122.905 326.26 123.45 327.757 124.351C329.254 125.252 330.477 126.375 331.441 127.731C332.405 129.087 333.084 130.573 333.478 132.19C333.871 133.808 333.952 135.454 333.72 137.131C333.492 138.82 332.924 140.437 332.028 141.979C331.133 143.521 330.01 144.813 328.665 145.824C327.32 146.836 325.859 147.566 324.293 148C322.714 148.437 321.112 148.54 319.479 148.327C317.846 148.114 316.288 147.582 314.791 146.681ZM317.617 141.827C318.413 142.305 319.223 142.59 320.061 142.677C320.9 142.765 321.719 142.681 322.527 142.41C323.336 142.139 324.085 141.694 324.802 141.081C325.507 140.472 326.139 139.692 326.69 138.757C327.241 137.823 327.604 136.885 327.782 135.955C327.961 135.026 327.977 134.14 327.831 133.297C327.685 132.454 327.356 131.674 326.875 130.976C326.394 130.278 325.755 129.689 324.959 129.211C324.163 128.732 323.353 128.448 322.514 128.36C321.676 128.273 320.857 128.357 320.049 128.628C319.24 128.899 318.491 129.344 317.774 129.957C317.069 130.566 316.437 131.346 315.886 132.28C315.335 133.215 314.972 134.153 314.794 135.082C314.615 136.012 314.599 136.898 314.745 137.741C314.894 138.596 315.22 139.363 315.701 140.062C316.182 140.76 316.821 141.349 317.617 141.827Z" fill="black"/>
<path d="M326.166 153.141L348.091 146.097L340.248 139.261L343.536 135.382L359.037 148.915L337.111 155.958L345.691 163.452L342.403 167.331L326.166 153.141Z" fill="black"/>
<path d="M344.842 170.353L363.082 153.595L366.97 157.938L348.731 174.696L344.842 170.353Z" fill="black"/>
<path d="M379.982 242.605C379.793 241.503 379.725 240.45 379.764 239.449C379.803 238.448 379.915 237.523 380.114 236.669C380.3 235.819 380.538 235.064 380.8 234.397C381.062 233.73 381.33 233.183 381.59 232.761L386.858 234.875C386.642 235.313 386.414 235.808 386.184 236.345C385.957 236.894 385.75 237.465 385.58 238.08C385.411 238.695 385.287 239.325 385.231 239.964C385.162 240.606 385.188 241.251 385.289 241.875C385.395 242.47 385.556 242.97 385.799 243.379C386.042 243.789 386.346 244.074 386.716 244.259C387.086 244.445 387.526 244.49 388.025 244.41C388.487 244.341 388.866 244.158 389.18 243.884C389.481 243.613 389.739 243.232 389.971 242.749C390.186 242.258 390.412 241.654 390.616 240.922C390.82 240.189 391.06 239.338 391.315 238.347C391.519 237.614 391.774 236.922 392.08 236.27C392.386 235.618 392.763 235.029 393.197 234.506C393.631 233.982 394.142 233.547 394.721 233.215C395.296 232.871 395.956 232.64 396.699 232.522C397.657 232.361 398.607 232.418 399.543 232.669C400.491 232.917 401.37 233.359 402.191 233.98C403.012 234.601 403.717 235.389 404.295 236.346C404.872 237.304 405.273 238.403 405.474 239.652C405.614 240.523 405.671 241.43 405.609 242.396C405.56 243.359 405.432 244.275 405.218 245.173C405.005 246.071 404.749 246.859 404.408 247.533L399.48 245.938C399.726 245.411 399.921 244.843 400.078 244.232C400.234 243.62 400.325 243.012 400.375 242.402C400.425 241.792 400.388 241.205 400.289 240.635C400.186 240.052 400.013 239.556 399.776 239.172C399.54 238.787 399.236 238.502 398.898 238.335C398.543 238.159 398.17 238.11 397.761 238.179C397.455 238.234 397.203 238.342 397.006 238.503C396.809 238.665 396.645 238.899 396.51 239.193C396.375 239.486 396.257 239.844 396.147 240.28C396.033 240.704 395.915 241.21 395.789 241.786C395.472 243.092 395.145 244.265 394.809 245.305C394.474 246.344 394.06 247.242 393.58 247.994C393.101 248.747 392.502 249.355 391.798 249.815C391.093 250.275 390.216 250.592 389.192 250.757C387.594 251.023 386.147 250.855 384.882 250.272C383.617 249.688 382.561 248.737 381.716 247.431C380.884 246.121 380.306 244.512 379.982 242.605Z" fill="black"/>
<path d="M382.014 267.073C381.987 265.182 382.283 263.393 382.924 261.702C383.566 260.011 384.463 258.523 385.611 257.225C386.759 255.927 388.104 254.915 389.639 254.165C391.177 253.427 392.823 253.04 394.596 253.026C396.368 253.012 398.039 253.364 399.607 254.083C401.175 254.802 402.552 255.803 403.747 257.07C404.941 258.337 405.883 259.807 406.572 261.481C407.261 263.155 407.617 264.931 407.652 266.807C407.674 268.334 407.491 269.794 407.094 271.202C406.693 272.598 406.173 273.796 405.513 274.773L400.558 272.33C401.006 271.708 401.363 270.948 401.614 270.04C401.864 269.132 401.989 268.203 401.973 267.244C401.956 266.136 401.756 265.091 401.38 264.134C401.003 263.177 400.484 262.34 399.824 261.621C399.164 260.903 398.401 260.348 397.535 259.956C396.669 259.564 395.722 259.37 394.707 259.371C393.696 259.385 392.748 259.584 391.894 259.989C391.041 260.394 390.286 260.963 389.652 261.689C389.019 262.415 388.526 263.266 388.182 264.226C387.838 265.187 387.678 266.233 387.695 267.341C387.711 268.3 387.856 269.238 388.15 270.136C388.444 271.033 388.807 271.791 389.28 272.41L384.402 274.938C383.754 274.013 383.191 272.862 382.74 271.477C382.279 270.108 382.033 268.642 382.014 267.073Z" fill="black"/>
<path d="M382.152 277.658L406.65 281.21L404.741 295.462L399.724 294.732L400.862 286.275L396.166 285.594L395.079 293.698L390.062 292.968L391.149 284.863L386.395 284.17L385.256 292.628L380.239 291.897L382.152 277.658Z" fill="black"/>
<path d="M379.462 296.716L403.054 304.364L401.339 309.924L384.02 314.62L398.456 319.297L396.741 324.856L373.148 317.209L374.863 311.649L392.182 306.953L377.746 302.276L379.462 296.716Z" fill="black"/>
<path d="M372.533 319.152L389.693 339.972L387.182 344.755L360.659 341.773L363.568 336.232L368.655 336.971L373.037 328.607L369.612 324.696L372.533 319.152ZM376.619 332.801L374.072 337.648L381.524 338.594L376.619 332.801Z" fill="black"/>
<path d="M307.338 389.135L317.034 412.254L309.889 415.295C307.718 416.216 305.806 416.457 304.156 416.031C302.503 415.593 301.266 414.418 300.45 412.467C299.459 410.115 299.688 408.032 301.142 406.232C299.471 406.625 298.016 406.527 296.782 405.908C295.547 405.29 294.598 404.188 293.936 402.615C293.353 401.239 293.176 399.93 293.363 398.686C293.563 397.439 294.104 396.317 294.998 395.318C295.892 394.319 297.1 393.493 298.612 392.857L307.338 389.135ZM303.774 395.57L302.261 396.206C301.004 396.747 300.152 397.355 299.721 398.04C299.29 398.725 299.247 399.51 299.612 400.375C299.985 401.265 300.585 401.81 301.409 401.996C302.237 402.194 303.261 402.028 304.485 401.511L305.997 400.875L303.774 395.57ZM307.953 405.532L307.4 405.761C306.382 406.197 305.685 406.737 305.326 407.389C304.966 408.042 304.947 408.766 305.279 409.558C305.612 410.351 306.117 410.839 306.803 411.008C307.489 411.177 308.361 411.038 309.416 410.593L309.969 410.363L307.953 405.532Z" fill="black"/>
<path d="M291.61 396.131L287.934 422.875L282.736 424.16L267.009 402.209L273.033 400.717L275.928 405.041L285.022 402.793L285.57 397.614L291.61 396.131ZM284.36 408.247L279.087 409.552L283.419 415.797L284.36 408.247Z" fill="black"/>
<path d="M267.784 401.961L257.3 422.69L267.574 421.957L267.971 427.073L247.644 428.52L258.128 407.791L246.884 408.594L246.488 403.478L267.784 401.961Z" fill="black"/>
<path d="M246.241 403.707L234.006 427.618L228.667 427.082L220.98 401.146L227.173 401.778L228.486 406.825L237.821 407.768L240.036 403.078L246.241 403.707ZM235.409 412.674L230.001 412.129L232.059 419.458L235.409 412.674Z" fill="black"/>
<path d="M219.029 400.393L212.612 424.535L203.788 422.058C202.14 421.591 200.779 420.898 199.713 419.963C198.648 419.027 197.92 417.907 197.546 416.61C197.172 415.313 197.186 413.872 197.605 412.294C197.915 411.112 198.393 410.103 199.046 409.249C199.686 408.4 200.468 407.729 201.394 407.25C202.309 406.774 203.339 406.484 204.497 406.418L199.232 394.848L206.308 396.831L210.622 407.394L211.158 407.549L213.472 398.845L219.029 400.393ZM209.9 412.227L208.442 411.818C207.56 411.566 206.775 411.478 206.1 411.55C205.425 411.623 204.868 411.839 204.438 412.226C204.004 412.6 203.692 413.131 203.521 413.788C203.247 414.81 203.391 415.694 203.96 416.423C204.517 417.156 205.468 417.715 206.782 418.082L208.241 418.491L209.9 412.227Z" fill="black"/>
<path d="M156.686 71.4538C208.204 52.7032 265.332 56.6438 314.799 80.9239L315.924 81.4807C363.455 105.203 399.191 148.041 415.228 199.11L415.902 201.3C429.701 247.006 428.058 298.164 408.437 341.641L407.962 342.683C387.241 387.8 347.265 419.089 298.699 427.419L298.698 427.42C298.122 427.517 297.729 427.11 297.619 426.7C297.564 426.492 297.57 426.256 297.677 426.052C297.788 425.841 297.992 425.693 298.27 425.649L298.271 425.648C304.452 424.574 310.562 423.194 316.576 421.406L317.654 421.08C363.225 407.118 397.2 370.687 412.526 325.43L413.236 323.29C427.643 278.973 425.091 229.238 407.929 185.811L407.087 183.716C386.627 133.554 346.241 94.5339 296.177 75.54L294.993 75.0951C244.611 56.3514 188.914 57.841 140.537 81.1056L139.395 81.6593C113.812 94.1704 91.2526 112.696 74.5234 135.991L73.7306 137.103C53.8453 165.293 45.2635 197.379 39.6493 231.223L39.6486 231.224C39.6058 231.472 39.4677 231.655 39.2811 231.762C39.1012 231.864 38.8905 231.89 38.6988 231.86C38.3258 231.802 37.912 231.505 37.9436 230.989C38.4108 221.95 39.7584 213.152 41.7002 204.335L42.0241 202.895C55.9531 142.05 97.4818 93.4419 155.471 71.901L156.686 71.4538Z" fill="#231F20" stroke="black" stroke-width="0.5"/>
<path d="M389.778 199.624C388.9 199.439 388.044 199.235 387.174 198.979C386.317 198.721 385.445 198.507 384.589 198.302C385.091 197.734 385.605 197.162 386.12 196.59C386.987 195.639 387.853 194.687 388.755 193.767C389.805 192.699 388.732 191.888 388.125 190.966C387.3 189.681 386.456 190.07 385.515 190.946C384.661 191.745 383.866 192.568 383.105 193.464C382.576 194.081 382.031 194.688 381.47 195.286C381.173 194.43 380.861 193.564 380.54 192.714C380.085 191.466 379.767 190.181 379.291 188.952C379.202 188.719 379.12 188.266 378.96 188.065C378.725 187.788 378.39 187.932 378.078 188.016C377.58 188.149 377.088 188.308 376.623 188.515C376.287 188.659 375.615 188.839 375.386 189.131C374.989 189.644 375.37 190.519 375.554 191.053C375.837 191.913 376.106 192.763 376.331 193.652C376.576 194.618 376.859 195.573 377.154 196.524C376.379 196.325 375.601 196.113 374.82 195.889C373.701 195.551 372.574 195.283 371.436 195.073C370.172 194.842 369.26 194.978 369.254 196.499C369.242 197.601 368.776 198.852 370.242 199.191C371.495 199.479 372.745 199.809 373.983 200.142C374.72 200.351 375.467 200.544 376.207 200.766C375.591 201.406 374.978 202.059 374.387 202.746C373.797 203.433 373.19 204.057 372.545 204.691C372.155 205.081 371.422 205.684 371.554 206.327C371.624 206.688 372.138 207.16 372.379 207.462C372.713 207.861 373.069 208.24 373.458 208.597C373.691 208.819 373.929 209.108 374.264 208.964C374.491 208.863 374.769 208.504 374.95 208.333C375.919 207.463 376.763 206.477 377.722 205.569C378.299 205.034 378.877 204.499 379.436 203.943C379.632 204.623 379.818 205.319 379.989 206.006C380.282 207.148 380.621 208.264 381.026 209.376C381.471 210.587 382.056 211.325 383.353 210.584C384.291 210.048 385.608 209.83 385.153 208.379C384.751 207.13 384.403 205.881 384.051 204.618C383.882 203.986 383.712 203.353 383.542 202.72C384.319 202.878 385.105 203.02 385.891 203.162C387.183 203.399 388.435 203.782 389.717 203.981C389.968 204.022 390.385 204.182 390.629 204.144C390.984 204.076 391.021 203.713 391.111 203.404C391.242 202.894 391.347 202.391 391.409 201.873C391.454 201.495 391.635 200.822 391.49 200.481C391.255 199.853 390.316 199.738 389.778 199.624Z" fill="#231F20"/>
<mask id="mask1_601_12226" style="mask-type:luminance" maskUnits="userSpaceOnUse" x="369" y="187" width="23" height="24">
<path d="M389.778 199.624C388.9 199.439 388.044 199.235 387.174 198.979C386.317 198.721 385.445 198.507 384.589 198.302C385.091 197.734 385.605 197.162 386.12 196.59C386.987 195.639 387.853 194.687 388.755 193.767C389.805 192.699 388.732 191.888 388.125 190.966C387.3 189.681 386.456 190.07 385.515 190.946C384.661 191.745 383.866 192.568 383.105 193.464C382.576 194.081 382.031 194.688 381.47 195.286C381.173 194.43 380.861 193.564 380.54 192.714C380.085 191.466 379.767 190.181 379.291 188.952C379.202 188.719 379.12 188.266 378.96 188.065C378.725 187.788 378.39 187.932 378.078 188.016C377.58 188.149 377.088 188.308 376.623 188.515C376.287 188.659 375.615 188.839 375.386 189.131C374.989 189.644 375.37 190.519 375.554 191.053C375.837 191.913 376.106 192.763 376.331 193.652C376.576 194.618 376.859 195.573 377.154 196.524C376.379 196.325 375.601 196.113 374.82 195.889C373.701 195.551 372.574 195.283 371.436 195.073C370.172 194.842 369.26 194.978 369.254 196.499C369.242 197.601 368.776 198.852 370.242 199.191C371.495 199.479 372.745 199.809 373.983 200.142C374.72 200.351 375.467 200.544 376.207 200.766C375.591 201.406 374.978 202.059 374.387 202.746C373.797 203.433 373.19 204.057 372.545 204.691C372.155 205.081 371.422 205.684 371.554 206.327C371.624 206.688 372.138 207.16 372.379 207.462C372.713 207.861 373.069 208.24 373.458 208.597C373.691 208.819 373.929 209.108 374.264 208.964C374.491 208.863 374.769 208.504 374.95 208.333C375.919 207.463 376.763 206.477 377.722 205.569C378.299 205.034 378.877 204.499 379.436 203.943C379.632 204.623 379.818 205.319 379.989 206.006C380.282 207.148 380.621 208.264 381.026 209.376C381.471 210.587 382.056 211.325 383.353 210.584C384.291 210.048 385.608 209.83 385.153 208.379C384.751 207.13 384.403 205.881 384.051 204.618C383.882 203.986 383.712 203.353 383.542 202.72C384.319 202.878 385.105 203.02 385.891 203.162C387.183 203.399 388.435 203.782 389.717 203.981C389.968 204.022 390.385 204.182 390.629 204.144C390.984 204.076 391.021 203.713 391.111 203.404C391.242 202.894 391.347 202.391 391.409 201.873C391.454 201.495 391.635 200.822 391.49 200.481C391.255 199.853 390.316 199.738 389.778 199.624Z" fill="white"/>
</mask>
<g mask="url(#mask1_601_12226)">
<path d="M389.778 199.624C388.9 199.439 388.044 199.235 387.174 198.979C386.317 198.721 385.445 198.507 384.589 198.302C385.091 197.734 385.605 197.162 386.12 196.59C386.987 195.639 387.853 194.687 388.755 193.767C389.805 192.699 388.732 191.888 388.125 190.966C387.3 189.681 386.456 190.07 385.515 190.946C384.661 191.745 383.866 192.568 383.105 193.464C382.576 194.081 382.031 194.688 381.47 195.286C381.173 194.43 380.861 193.564 380.54 192.714C380.085 191.466 379.767 190.181 379.291 188.952C379.202 188.719 379.12 188.266 378.96 188.065C378.725 187.788 378.39 187.932 378.078 188.016C377.58 188.149 377.088 188.308 376.623 188.515C376.287 188.659 375.615 188.839 375.386 189.131C374.989 189.644 375.37 190.519 375.554 191.053C375.837 191.913 376.106 192.763 376.331 193.652C376.576 194.618 376.859 195.573 377.154 196.524C376.379 196.325 375.601 196.113 374.82 195.889C373.701 195.551 372.574 195.283 371.436 195.073C370.172 194.842 369.26 194.978 369.254 196.499C369.242 197.601 368.776 198.852 370.242 199.191C371.495 199.479 372.745 199.809 373.983 200.142C374.72 200.351 375.467 200.544 376.207 200.766C375.591 201.406 374.978 202.059 374.387 202.746C373.797 203.433 373.19 204.057 372.545 204.691C372.155 205.081 371.422 205.684 371.554 206.327C371.624 206.688 372.138 207.16 372.379 207.462C372.713 207.861 373.069 208.24 373.458 208.597C373.691 208.819 373.929 209.108 374.264 208.964C374.491 208.863 374.769 208.504 374.95 208.333C375.919 207.463 376.763 206.477 377.722 205.569C378.299 205.034 378.877 204.499 379.436 203.943C379.632 204.623 379.818 205.319 379.989 206.006C380.282 207.148 380.621 208.264 381.026 209.376C381.471 210.587 382.056 211.325 383.353 210.584C384.291 210.048 385.608 209.83 385.153 208.379C384.751 207.13 384.403 205.881 384.051 204.618C383.882 203.986 383.712 203.353 383.542 202.72C384.319 202.878 385.105 203.02 385.891 203.162C387.183 203.399 388.435 203.782 389.717 203.981C389.968 204.022 390.385 204.182 390.629 204.144C390.984 204.076 391.021 203.713 391.111 203.404C391.242 202.894 391.347 202.391 391.409 201.873C391.454 201.495 391.635 200.822 391.49 200.481C391.255 199.853 390.316 199.738 389.778 199.624Z" fill="#231F20"/>
</g>
<path d="M356.195 379.523C355.317 379.338 354.461 379.134 353.591 378.878C352.734 378.62 351.862 378.406 351.005 378.201C351.507 377.633 352.022 377.061 352.536 376.489C353.403 375.538 354.27 374.586 355.172 373.666C356.221 372.598 355.149 371.787 354.541 370.865C353.716 369.58 352.872 369.969 351.932 370.845C351.078 371.644 350.283 372.467 349.522 373.363C348.992 373.98 348.447 374.587 347.886 375.185C347.59 374.329 347.278 373.463 346.957 372.613C346.502 371.365 346.184 370.08 345.708 368.851C345.618 368.617 345.537 368.165 345.376 367.963C345.142 367.687 344.807 367.831 344.495 367.915C343.997 368.048 343.505 368.207 343.04 368.413C342.704 368.558 342.031 368.738 341.802 369.03C341.406 369.543 341.787 370.418 341.97 370.952C342.254 371.812 342.522 372.662 342.747 373.551C342.993 374.517 343.275 375.472 343.571 376.423C342.796 376.224 342.018 376.012 341.236 375.788C340.118 375.45 338.991 375.182 337.853 374.972C336.589 374.741 335.677 374.877 335.67 376.398C335.659 377.5 335.193 378.75 336.659 379.09C337.912 379.378 339.162 379.708 340.4 380.04C341.137 380.25 341.883 380.443 342.624 380.665C342.008 381.305 341.394 381.958 340.804 382.645C340.214 383.332 339.606 383.956 338.962 384.59C338.572 384.98 337.839 385.583 337.971 386.226C338.041 386.587 338.555 387.059 338.796 387.361C339.13 387.76 339.485 388.139 339.875 388.496C340.108 388.718 340.346 389.007 340.681 388.863C340.908 388.762 341.185 388.403 341.367 388.232C342.336 387.362 343.18 386.376 344.138 385.468C344.716 384.933 345.294 384.398 345.853 383.842C346.048 384.522 346.235 385.218 346.406 385.905C346.699 387.047 347.038 388.163 347.443 389.275C347.887 390.486 348.473 391.224 349.77 390.483C350.708 389.947 352.025 389.729 351.569 388.278C351.168 387.029 350.82 385.779 350.468 384.517C350.298 383.885 350.129 383.252 349.959 382.619C350.736 382.777 351.522 382.919 352.308 383.061C353.6 383.298 354.852 383.681 356.134 383.88C356.385 383.921 356.802 384.081 357.045 384.043C357.401 383.975 357.437 383.612 357.528 383.303C357.659 382.793 357.764 382.29 357.826 381.772C357.871 381.394 358.051 380.721 357.907 380.38C357.671 379.751 356.745 379.634 356.195 379.523Z" fill="#231F20"/>
<mask id="mask2_601_12226" style="mask-type:luminance" maskUnits="userSpaceOnUse" x="335" y="367" width="23" height="24">
<path d="M356.195 379.523C355.317 379.338 354.461 379.134 353.591 378.878C352.734 378.62 351.862 378.406 351.005 378.201C351.507 377.633 352.022 377.061 352.536 376.489C353.403 375.538 354.27 374.586 355.172 373.666C356.221 372.598 355.149 371.787 354.541 370.865C353.716 369.58 352.872 369.969 351.932 370.845C351.078 371.644 350.283 372.467 349.522 373.363C348.992 373.98 348.447 374.587 347.886 375.185C347.59 374.329 347.278 373.463 346.957 372.613C346.502 371.365 346.184 370.08 345.708 368.851C345.618 368.617 345.537 368.165 345.376 367.963C345.142 367.687 344.807 367.831 344.495 367.915C343.997 368.048 343.505 368.207 343.04 368.413C342.704 368.558 342.031 368.738 341.802 369.03C341.406 369.543 341.787 370.418 341.97 370.952C342.254 371.812 342.522 372.662 342.747 373.551C342.993 374.517 343.275 375.472 343.571 376.423C342.796 376.224 342.018 376.012 341.236 375.788C340.118 375.45 338.991 375.182 337.853 374.972C336.589 374.741 335.677 374.877 335.67 376.398C335.659 377.5 335.193 378.75 336.659 379.09C337.912 379.378 339.162 379.708 340.4 380.04C341.137 380.25 341.883 380.443 342.624 380.665C342.008 381.305 341.394 381.958 340.804 382.645C340.214 383.332 339.606 383.956 338.962 384.59C338.572 384.98 337.839 385.583 337.971 386.226C338.041 386.587 338.555 387.059 338.796 387.361C339.13 387.76 339.485 388.139 339.875 388.496C340.108 388.718 340.346 389.007 340.681 388.863C340.908 388.762 341.185 388.403 341.367 388.232C342.336 387.362 343.18 386.376 344.138 385.468C344.716 384.933 345.294 384.398 345.853 383.842C346.048 384.522 346.235 385.218 346.406 385.905C346.699 387.047 347.038 388.163 347.443 389.275C347.887 390.486 348.473 391.224 349.77 390.483C350.708 389.947 352.025 389.729 351.569 388.278C351.168 387.029 350.82 385.779 350.468 384.517C350.298 383.885 350.129 383.252 349.959 382.619C350.736 382.777 351.522 382.919 352.308 383.061C353.6 383.298 354.852 383.681 356.134 383.88C356.385 383.921 356.802 384.081 357.045 384.043C357.401 383.975 357.437 383.612 357.528 383.303C357.659 382.793 357.764 382.29 357.826 381.772C357.871 381.394 358.051 380.721 357.907 380.38C357.671 379.751 356.745 379.634 356.195 379.523Z" fill="white"/>
</mask>
<g mask="url(#mask2_601_12226)">
<path d="M356.195 379.523C355.317 379.338 354.461 379.134 353.591 378.878C352.734 378.62 351.862 378.406 351.005 378.201C351.507 377.633 352.022 377.061 352.536 376.489C353.403 375.538 354.27 374.586 355.172 373.666C356.221 372.598 355.149 371.787 354.541 370.865C353.716 369.58 352.872 369.969 351.932 370.845C351.078 371.644 350.283 372.467 349.522 373.363C348.992 373.98 348.447 374.587 347.886 375.185C347.59 374.329 347.278 373.463 346.957 372.613C346.502 371.365 346.184 370.08 345.708 368.851C345.618 368.617 345.537 368.165 345.376 367.963C345.142 367.687 344.807 367.831 344.495 367.915C343.997 368.048 343.505 368.207 343.04 368.413C342.704 368.558 342.031 368.738 341.802 369.03C341.406 369.543 341.787 370.418 341.97 370.952C342.254 371.812 342.522 372.662 342.747 373.551C342.993 374.517 343.275 375.472 343.571 376.423C342.796 376.224 342.018 376.012 341.236 375.788C340.118 375.45 338.991 375.182 337.853 374.972C336.589 374.741 335.677 374.877 335.67 376.398C335.659 377.5 335.193 378.75 336.659 379.09C337.912 379.378 339.162 379.708 340.4 380.04C341.137 380.25 341.883 380.443 342.624 380.665C342.008 381.305 341.394 381.958 340.804 382.645C340.214 383.332 339.606 383.956 338.962 384.59C338.572 384.98 337.839 385.583 337.971 386.226C338.041 386.587 338.555 387.059 338.796 387.361C339.13 387.76 339.485 388.139 339.875 388.496C340.108 388.718 340.346 389.007 340.681 388.863C340.908 388.762 341.185 388.403 341.367 388.232C342.336 387.362 343.18 386.376 344.138 385.468C344.716 384.933 345.294 384.398 345.853 383.842C346.048 384.522 346.235 385.218 346.406 385.905C346.699 387.047 347.038 388.163 347.443 389.275C347.887 390.486 348.473 391.224 349.77 390.483C350.708 389.947 352.025 389.729 351.569 388.278C351.168 387.029 350.82 385.779 350.468 384.517C350.298 383.885 350.129 383.252 349.959 382.619C350.736 382.777 351.522 382.919 352.308 383.061C353.6 383.298 354.852 383.681 356.134 383.88C356.385 383.921 356.802 384.081 357.045 384.043C357.401 383.975 357.437 383.612 357.528 383.303C357.659 382.793 357.764 382.29 357.826 381.772C357.871 381.394 358.051 380.721 357.907 380.38C357.671 379.751 356.745 379.634 356.195 379.523Z" fill="#231F20"/>
</g>
</svg>
