<svg width="474" height="479" viewBox="0 0 474 479" fill="none" xmlns="http://www.w3.org/2000/svg">
<path d="M423.887 204.186C428.343 299.488 393.521 400.721 297.937 426.342C202.352 451.962 82.7306 405.244 56.713 308.179C30.6955 211.114 101.299 93.1422 196.883 67.5216C292.467 41.901 419.196 103.873 423.887 204.186Z" fill="#FEB7A1"/>
<path d="M338.057 273.175C324.623 273.33 278.109 286.748 278.109 286.748C278.109 286.748 304.592 212.6 305.976 203.914C268.555 214.881 211.794 241.692 211.794 241.692L208.256 203.779C208.256 203.779 228.597 195.505 240.778 185.892C251.449 177.471 257.935 162.154 257.531 158.654C248.067 163.009 203.542 185.442 187.055 193.591C188.518 206.126 193.075 250.929 193.075 250.929L172.388 261.547L165.961 204.535C154.974 209.882 146.424 214.656 140.684 224.034C132.759 237.023 118.844 292.935 118.844 292.935C118.844 292.935 104.908 303.426 101.91 307.038C102.372 308.365 116.336 302.411 116.336 302.411C101.667 362.486 103.936 370.952 103.936 370.952C103.936 370.952 104.952 370.707 107.198 367.325C110.995 357.775 130.071 296.302 130.071 296.302L156.058 284.832C156.058 284.832 163.463 355.309 166.71 353.719C177.999 327.824 174.148 276.932 174.148 276.932L194.999 267.924C194.999 267.924 204.671 341.577 207.318 338.996C218.828 323.839 213.682 259.946 213.682 259.946L273.52 235.199C273.52 235.199 246.469 309.919 246.461 316.812C277.65 306.96 334.04 279.664 338.057 273.175ZM154.566 271.492L133.736 284.413L150.054 231.289L154.566 271.492Z" fill="black"/>
<path d="M259.166 176.813L279.051 201.474C279.051 201.474 286.681 198.249 294.404 195.568L308.167 151.797C289.242 156.082 283.187 185.214 283.187 185.214C283.187 185.214 270.157 172.375 259.166 176.813Z" fill="black"/>
<path d="M212.892 117.434L209.144 92.6395L216.289 91.5924C218.023 91.3314 219.687 91.4141 221.281 91.828C222.862 92.2452 224.301 92.931 225.602 93.8981C226.891 94.8684 227.97 96.0575 228.817 97.4718C229.676 98.8829 230.235 100.469 230.487 102.206C230.754 103.952 230.679 105.613 230.292 107.209C229.905 108.805 229.224 110.249 228.273 111.535C227.322 112.821 226.138 113.884 224.736 114.734C223.335 115.585 221.77 116.126 220.025 116.391L212.892 117.434ZM217.812 111.422L218.583 111.311C219.586 111.164 220.462 110.848 221.242 110.367C222.021 109.887 222.66 109.282 223.172 108.548C223.683 107.814 224.035 106.987 224.254 106.06C224.461 105.137 224.487 104.14 224.328 103.097C224.169 102.055 223.852 101.122 223.39 100.296C222.929 99.4707 222.329 98.7769 221.631 98.2178C220.921 97.6621 220.121 97.2663 219.242 97.0271C218.363 96.7879 217.42 96.7559 216.417 96.9025L215.646 97.0143L217.812 111.422Z" fill="black"/>
<path d="M236.022 114.789L235.426 89.7457L241.197 89.6503L241.793 114.693L236.022 114.789Z" fill="black"/>
<path d="M250.362 115.516C248.04 115.325 246.097 114.354 244.539 112.628L246.774 107.96C247.875 109.13 248.897 109.751 249.813 109.831C250.607 109.903 251.259 109.647 251.777 109.087C252.279 108.519 252.585 107.718 252.664 106.666L253.902 90.206L259.656 90.6982L258.296 108.642C258.122 111.035 257.32 112.824 255.919 114.027C254.512 115.204 252.671 115.711 250.362 115.516Z" fill="black"/>
<path d="M259.749 115.414L274.976 93.3462L280.211 94.5882L284.496 121.287L278.434 119.847L277.77 114.68L268.626 112.506L265.824 116.851L259.749 115.414ZM271.643 107.967L276.95 109.23L275.853 101.698L271.643 107.967Z" fill="black"/>
<path d="M286.387 122.463L295.378 99.2042L300.754 101.371L293.597 119.865L301.443 123.025L299.596 127.793L286.387 122.463Z" fill="black"/>
<path d="M310.791 134.681C309.294 133.78 308.071 132.656 307.107 131.301C306.142 129.945 305.463 128.458 305.07 126.841C304.677 125.224 304.596 123.577 304.824 121.888C305.053 120.199 305.621 118.582 306.516 117.04C307.412 115.498 308.535 114.206 309.88 113.195C311.225 112.183 312.685 111.453 314.251 111.019C315.818 110.586 317.432 110.479 319.065 110.692C320.698 110.905 322.26 111.45 323.757 112.351C325.254 113.252 326.477 114.375 327.441 115.731C328.405 117.087 329.084 118.573 329.478 120.19C329.871 121.808 329.952 123.454 329.72 125.131C329.492 126.82 328.924 128.437 328.028 129.979C327.133 131.521 326.01 132.813 324.665 133.824C323.32 134.836 321.859 135.566 320.293 136C318.714 136.437 317.112 136.54 315.479 136.327C313.846 136.114 312.288 135.582 310.791 134.681ZM313.617 129.827C314.413 130.305 315.223 130.59 316.061 130.677C316.9 130.765 317.719 130.681 318.527 130.41C319.336 130.139 320.085 129.694 320.802 129.081C321.507 128.472 322.139 127.692 322.69 126.757C323.241 125.823 323.604 124.885 323.782 123.955C323.961 123.026 323.977 122.14 323.831 121.297C323.685 120.454 323.356 119.674 322.875 118.976C322.394 118.278 321.755 117.689 320.959 117.211C320.163 116.732 319.353 116.448 318.514 116.36C317.676 116.273 316.857 116.357 316.049 116.628C315.24 116.899 314.491 117.344 313.774 117.957C313.069 118.566 312.437 119.346 311.886 120.28C311.335 121.215 310.972 122.153 310.794 123.082C310.615 124.012 310.599 124.898 310.745 125.741C310.894 126.596 311.22 127.363 311.701 128.062C312.182 128.76 312.821 129.349 313.617 129.827Z" fill="black"/>
<path d="M322.166 141.141L344.091 134.097L336.248 127.261L339.536 123.382L355.037 136.915L333.111 143.958L341.691 151.452L338.403 155.331L322.166 141.141Z" fill="black"/>
<path d="M340.842 158.353L359.082 141.595L362.97 145.938L344.731 162.696L340.842 158.353Z" fill="black"/>
<path d="M375.982 230.605C375.793 229.503 375.725 228.45 375.764 227.449C375.803 226.448 375.915 225.523 376.114 224.669C376.3 223.819 376.538 223.064 376.8 222.397C377.062 221.73 377.33 221.183 377.59 220.761L382.858 222.875C382.642 223.313 382.414 223.808 382.184 224.345C381.957 224.894 381.75 225.465 381.58 226.08C381.411 226.695 381.287 227.325 381.231 227.964C381.162 228.606 381.188 229.251 381.289 229.875C381.395 230.47 381.556 230.97 381.799 231.379C382.042 231.789 382.346 232.074 382.716 232.259C383.086 232.445 383.526 232.49 384.025 232.41C384.487 232.341 384.866 232.158 385.18 231.884C385.481 231.613 385.739 231.232 385.971 230.749C386.186 230.258 386.412 229.654 386.616 228.922C386.82 228.189 387.06 227.338 387.315 226.347C387.519 225.614 387.774 224.922 388.08 224.27C388.386 223.618 388.763 223.029 389.197 222.506C389.631 221.982 390.142 221.547 390.721 221.215C391.296 220.871 391.956 220.64 392.699 220.522C393.657 220.361 394.607 220.418 395.543 220.669C396.491 220.917 397.37 221.359 398.191 221.98C399.012 222.601 399.717 223.389 400.295 224.346C400.872 225.304 401.273 226.403 401.474 227.652C401.614 228.523 401.671 229.43 401.609 230.396C401.56 231.359 401.432 232.275 401.218 233.173C401.005 234.071 400.749 234.859 400.408 235.533L395.48 233.938C395.726 233.411 395.921 232.843 396.078 232.232C396.234 231.62 396.325 231.012 396.375 230.402C396.425 229.792 396.388 229.205 396.289 228.635C396.186 228.052 396.013 227.556 395.776 227.172C395.54 226.787 395.236 226.502 394.898 226.335C394.543 226.159 394.17 226.11 393.761 226.179C393.455 226.234 393.203 226.342 393.006 226.503C392.809 226.665 392.645 226.899 392.51 227.193C392.375 227.486 392.257 227.844 392.147 228.28C392.033 228.704 391.915 229.21 391.789 229.786C391.472 231.092 391.145 232.265 390.809 233.305C390.474 234.344 390.06 235.242 389.58 235.994C389.101 236.747 388.502 237.355 387.798 237.815C387.093 238.275 386.216 238.592 385.192 238.757C383.594 239.023 382.147 238.855 380.882 238.272C379.617 237.688 378.561 236.737 377.716 235.431C376.884 234.121 376.306 232.512 375.982 230.605Z" fill="black"/>
<path d="M378.014 255.073C377.987 253.182 378.283 251.393 378.924 249.702C379.566 248.011 380.463 246.523 381.611 245.225C382.759 243.927 384.104 242.915 385.639 242.165C387.177 241.427 388.823 241.04 390.596 241.026C392.368 241.012 394.039 241.364 395.607 242.083C397.175 242.802 398.552 243.803 399.747 245.07C400.941 246.337 401.883 247.807 402.572 249.481C403.261 251.155 403.617 252.931 403.652 254.807C403.674 256.334 403.491 257.794 403.094 259.202C402.693 260.598 402.173 261.796 401.513 262.773L396.558 260.33C397.006 259.708 397.363 258.948 397.614 258.04C397.864 257.132 397.989 256.203 397.973 255.244C397.956 254.136 397.756 253.091 397.38 252.134C397.003 251.177 396.484 250.34 395.824 249.621C395.164 248.903 394.401 248.348 393.535 247.956C392.669 247.564 391.722 247.37 390.707 247.371C389.696 247.385 388.748 247.584 387.894 247.989C387.041 248.394 386.286 248.963 385.652 249.689C385.019 250.415 384.526 251.266 384.182 252.226C383.838 253.187 383.678 254.233 383.695 255.341C383.711 256.3 383.856 257.238 384.15 258.136C384.444 259.033 384.807 259.791 385.28 260.41L380.402 262.938C379.754 262.013 379.191 260.862 378.74 259.477C378.279 258.108 378.033 256.642 378.014 255.073Z" fill="black"/>
<path d="M378.152 265.658L402.65 269.21L400.741 283.462L395.724 282.732L396.862 274.275L392.166 273.594L391.079 281.698L386.062 280.968L387.149 272.863L382.395 272.17L381.256 280.628L376.239 279.897L378.152 265.658Z" fill="black"/>
<path d="M375.462 284.716L399.054 292.364L397.339 297.924L380.02 302.62L394.456 307.297L392.741 312.856L369.148 305.209L370.863 299.649L388.182 294.953L373.746 290.276L375.462 284.716Z" fill="black"/>
<path d="M368.533 307.152L385.693 327.972L383.182 332.755L356.659 329.773L359.568 324.232L364.655 324.971L369.037 316.607L365.612 312.696L368.533 307.152ZM372.619 320.801L370.072 325.648L377.524 326.594L372.619 320.801Z" fill="black"/>
<path d="M303.338 377.135L313.034 400.254L305.889 403.295C303.718 404.216 301.806 404.457 300.156 404.031C298.503 403.593 297.266 402.418 296.45 400.467C295.459 398.115 295.688 396.032 297.142 394.232C295.471 394.625 294.016 394.527 292.782 393.908C291.547 393.29 290.598 392.188 289.936 390.615C289.353 389.239 289.176 387.93 289.363 386.686C289.563 385.439 290.104 384.317 290.998 383.318C291.892 382.319 293.1 381.493 294.612 380.857L303.338 377.135ZM299.774 383.57L298.261 384.206C297.004 384.747 296.152 385.355 295.721 386.04C295.29 386.725 295.247 387.51 295.612 388.375C295.985 389.265 296.585 389.81 297.409 389.996C298.237 390.194 299.261 390.028 300.485 389.511L301.997 388.875L299.774 383.57ZM303.953 393.532L303.4 393.761C302.382 394.197 301.685 394.737 301.326 395.389C300.966 396.042 300.947 396.766 301.279 397.558C301.612 398.351 302.117 398.839 302.803 399.008C303.489 399.177 304.361 399.038 305.416 398.593L305.969 398.363L303.953 393.532Z" fill="black"/>
<path d="M287.61 384.131L283.934 410.875L278.736 412.16L263.009 390.209L269.033 388.717L271.928 393.041L281.022 390.793L281.57 385.614L287.61 384.131ZM280.36 396.247L275.087 397.552L279.419 403.797L280.36 396.247Z" fill="black"/>
<path d="M263.784 389.961L253.3 410.69L263.574 409.957L263.971 415.073L243.644 416.52L254.128 395.791L242.884 396.594L242.488 391.478L263.784 389.961Z" fill="black"/>
<path d="M242.241 391.707L230.006 415.618L224.667 415.082L216.98 389.146L223.173 389.778L224.486 394.825L233.821 395.768L236.036 391.078L242.241 391.707ZM231.409 400.674L226.001 400.129L228.059 407.458L231.409 400.674Z" fill="black"/>
<path d="M215.029 388.393L208.612 412.535L199.788 410.058C198.14 409.591 196.779 408.898 195.713 407.963C194.648 407.027 193.92 405.907 193.546 404.61C193.172 403.313 193.186 401.872 193.605 400.294C193.915 399.112 194.393 398.103 195.046 397.249C195.686 396.4 196.468 395.729 197.394 395.25C198.309 394.774 199.339 394.484 200.497 394.418L195.232 382.848L202.308 384.831L206.622 395.394L207.158 395.549L209.472 386.845L215.029 388.393ZM205.9 400.227L204.442 399.818C203.56 399.566 202.775 399.478 202.1 399.55C201.425 399.623 200.868 399.839 200.438 400.226C200.004 400.6 199.692 401.131 199.521 401.788C199.247 402.81 199.391 403.694 199.96 404.423C200.517 405.156 201.468 405.715 202.782 406.082L204.241 406.491L205.9 400.227Z" fill="black"/>
<path d="M152.686 59.4538C204.204 40.7032 261.332 44.6438 310.799 68.9239L311.924 69.4807C359.455 93.203 395.191 136.041 411.228 187.11L411.902 189.3C425.701 235.006 424.058 286.164 404.437 329.641L403.962 330.683C383.241 375.8 343.265 407.089 294.699 415.419L294.698 415.42C294.122 415.517 293.729 415.11 293.619 414.7C293.564 414.492 293.57 414.256 293.677 414.052C293.788 413.841 293.992 413.693 294.27 413.649L294.271 413.648C300.452 412.574 306.562 411.194 312.576 409.406L313.654 409.08C359.225 395.118 393.2 358.687 408.526 313.43L409.236 311.29C423.643 266.973 421.091 217.238 403.929 173.811L403.087 171.716C382.627 121.554 342.241 82.5339 292.177 63.54L290.993 63.0951C240.611 44.3514 184.914 45.841 136.537 69.1056L135.395 69.6593C109.812 82.1704 87.2526 100.696 70.5234 123.991L69.7306 125.103C49.8453 153.293 41.2635 185.379 35.6493 219.223L35.6486 219.224C35.6058 219.472 35.4677 219.655 35.2811 219.762C35.1012 219.864 34.8905 219.89 34.6988 219.86C34.3258 219.802 33.912 219.505 33.9436 218.989C34.4108 209.95 35.7584 201.152 37.7002 192.335L38.0241 190.895C51.9531 130.05 93.4818 81.4419 151.471 59.901L152.686 59.4538Z" fill="#231F20" stroke="black" stroke-width="0.5"/>
<path d="M385.778 187.624C384.9 187.439 384.044 187.235 383.174 186.979C382.317 186.721 381.445 186.507 380.589 186.302C381.091 185.734 381.605 185.162 382.12 184.59C382.987 183.639 383.853 182.687 384.755 181.767C385.805 180.699 384.732 179.888 384.125 178.966C383.3 177.681 382.456 178.07 381.515 178.946C380.661 179.745 379.866 180.568 379.105 181.464C378.576 182.081 378.031 182.688 377.47 183.286C377.173 182.43 376.861 181.564 376.54 180.714C376.085 179.466 375.767 178.181 375.291 176.952C375.202 176.719 375.12 176.266 374.96 176.065C374.725 175.788 374.39 175.932 374.078 176.016C373.58 176.149 373.088 176.308 372.623 176.515C372.287 176.659 371.615 176.839 371.386 177.131C370.989 177.644 371.37 178.519 371.554 179.053C371.837 179.913 372.106 180.763 372.331 181.652C372.576 182.618 372.859 183.573 373.154 184.524C372.379 184.325 371.601 184.113 370.82 183.889C369.701 183.551 368.574 183.283 367.436 183.073C366.172 182.842 365.26 182.978 365.254 184.499C365.242 185.601 364.776 186.852 366.242 187.191C367.495 187.479 368.745 187.809 369.983 188.142C370.72 188.351 371.467 188.544 372.207 188.766C371.591 189.406 370.978 190.059 370.387 190.746C369.797 191.433 369.19 192.057 368.545 192.691C368.155 193.081 367.422 193.684 367.554 194.327C367.624 194.688 368.138 195.16 368.379 195.462C368.713 195.861 369.069 196.24 369.458 196.597C369.691 196.819 369.929 197.108 370.264 196.964C370.491 196.863 370.769 196.504 370.95 196.333C371.919 195.463 372.763 194.477 373.722 193.569C374.299 193.034 374.877 192.499 375.436 191.943C375.632 192.623 375.818 193.319 375.989 194.006C376.282 195.148 376.621 196.264 377.026 197.376C377.471 198.587 378.056 199.325 379.353 198.584C380.291 198.048 381.608 197.83 381.153 196.379C380.751 195.13 380.403 193.881 380.051 192.618C379.882 191.986 379.712 191.353 379.542 190.72C380.319 190.878 381.105 191.02 381.891 191.162C383.183 191.399 384.435 191.782 385.717 191.981C385.968 192.022 386.385 192.182 386.629 192.144C386.984 192.076 387.021 191.713 387.111 191.404C387.242 190.894 387.347 190.391 387.409 189.873C387.454 189.495 387.635 188.822 387.49 188.481C387.255 187.853 386.316 187.738 385.778 187.624Z" fill="#231F20"/>
<mask id="mask0_601_12233" style="mask-type:luminance" maskUnits="userSpaceOnUse" x="365" y="175" width="23" height="24">
<path d="M385.778 187.624C384.9 187.439 384.044 187.235 383.174 186.979C382.317 186.721 381.445 186.507 380.589 186.302C381.091 185.734 381.605 185.162 382.12 184.59C382.987 183.639 383.853 182.687 384.755 181.767C385.805 180.699 384.732 179.888 384.125 178.966C383.3 177.681 382.456 178.07 381.515 178.946C380.661 179.745 379.866 180.568 379.105 181.464C378.576 182.081 378.031 182.688 377.47 183.286C377.173 182.43 376.861 181.564 376.54 180.714C376.085 179.466 375.767 178.181 375.291 176.952C375.202 176.719 375.12 176.266 374.96 176.065C374.725 175.788 374.39 175.932 374.078 176.016C373.58 176.149 373.088 176.308 372.623 176.515C372.287 176.659 371.615 176.839 371.386 177.131C370.989 177.644 371.37 178.519 371.554 179.053C371.837 179.913 372.106 180.763 372.331 181.652C372.576 182.618 372.859 183.573 373.154 184.524C372.379 184.325 371.601 184.113 370.82 183.889C369.701 183.551 368.574 183.283 367.436 183.073C366.172 182.842 365.26 182.978 365.254 184.499C365.242 185.601 364.776 186.852 366.242 187.191C367.495 187.479 368.745 187.809 369.983 188.142C370.72 188.351 371.467 188.544 372.207 188.766C371.591 189.406 370.978 190.059 370.387 190.746C369.797 191.433 369.19 192.057 368.545 192.691C368.155 193.081 367.422 193.684 367.554 194.327C367.624 194.688 368.138 195.16 368.379 195.462C368.713 195.861 369.069 196.24 369.458 196.597C369.691 196.819 369.929 197.108 370.264 196.964C370.491 196.863 370.769 196.504 370.95 196.333C371.919 195.463 372.763 194.477 373.722 193.569C374.299 193.034 374.877 192.499 375.436 191.943C375.632 192.623 375.818 193.319 375.989 194.006C376.282 195.148 376.621 196.264 377.026 197.376C377.471 198.587 378.056 199.325 379.353 198.584C380.291 198.048 381.608 197.83 381.153 196.379C380.751 195.13 380.403 193.881 380.051 192.618C379.882 191.986 379.712 191.353 379.542 190.72C380.319 190.878 381.105 191.02 381.891 191.162C383.183 191.399 384.435 191.782 385.717 191.981C385.968 192.022 386.385 192.182 386.629 192.144C386.984 192.076 387.021 191.713 387.111 191.404C387.242 190.894 387.347 190.391 387.409 189.873C387.454 189.495 387.635 188.822 387.49 188.481C387.255 187.853 386.316 187.738 385.778 187.624Z" fill="white"/>
</mask>
<g mask="url(#mask0_601_12233)">
<path d="M385.778 187.624C384.9 187.439 384.044 187.235 383.174 186.979C382.317 186.721 381.445 186.507 380.589 186.302C381.091 185.734 381.605 185.162 382.12 184.59C382.987 183.639 383.853 182.687 384.755 181.767C385.805 180.699 384.732 179.888 384.125 178.966C383.3 177.681 382.456 178.07 381.515 178.946C380.661 179.745 379.866 180.568 379.105 181.464C378.576 182.081 378.031 182.688 377.47 183.286C377.173 182.43 376.861 181.564 376.54 180.714C376.085 179.466 375.767 178.181 375.291 176.952C375.202 176.719 375.12 176.266 374.96 176.065C374.725 175.788 374.39 175.932 374.078 176.016C373.58 176.149 373.088 176.308 372.623 176.515C372.287 176.659 371.615 176.839 371.386 177.131C370.989 177.644 371.37 178.519 371.554 179.053C371.837 179.913 372.106 180.763 372.331 181.652C372.576 182.618 372.859 183.573 373.154 184.524C372.379 184.325 371.601 184.113 370.82 183.889C369.701 183.551 368.574 183.283 367.436 183.073C366.172 182.842 365.26 182.978 365.254 184.499C365.242 185.601 364.776 186.852 366.242 187.191C367.495 187.479 368.745 187.809 369.983 188.142C370.72 188.351 371.467 188.544 372.207 188.766C371.591 189.406 370.978 190.059 370.387 190.746C369.797 191.433 369.19 192.057 368.545 192.691C368.155 193.081 367.422 193.684 367.554 194.327C367.624 194.688 368.138 195.16 368.379 195.462C368.713 195.861 369.069 196.24 369.458 196.597C369.691 196.819 369.929 197.108 370.264 196.964C370.491 196.863 370.769 196.504 370.95 196.333C371.919 195.463 372.763 194.477 373.722 193.569C374.299 193.034 374.877 192.499 375.436 191.943C375.632 192.623 375.818 193.319 375.989 194.006C376.282 195.148 376.621 196.264 377.026 197.376C377.471 198.587 378.056 199.325 379.353 198.584C380.291 198.048 381.608 197.83 381.153 196.379C380.751 195.13 380.403 193.881 380.051 192.618C379.882 191.986 379.712 191.353 379.542 190.72C380.319 190.878 381.105 191.02 381.891 191.162C383.183 191.399 384.435 191.782 385.717 191.981C385.968 192.022 386.385 192.182 386.629 192.144C386.984 192.076 387.021 191.713 387.111 191.404C387.242 190.894 387.347 190.391 387.409 189.873C387.454 189.495 387.635 188.822 387.49 188.481C387.255 187.853 386.316 187.738 385.778 187.624Z" fill="#231F20"/>
</g>
<path d="M352.195 367.523C351.317 367.338 350.461 367.134 349.591 366.878C348.734 366.62 347.862 366.406 347.005 366.201C347.507 365.633 348.022 365.061 348.536 364.489C349.403 363.538 350.27 362.586 351.172 361.666C352.221 360.598 351.149 359.787 350.541 358.865C349.716 357.58 348.872 357.969 347.932 358.845C347.078 359.644 346.283 360.467 345.522 361.363C344.992 361.98 344.447 362.587 343.886 363.185C343.59 362.329 343.278 361.463 342.957 360.613C342.502 359.365 342.184 358.08 341.708 356.851C341.618 356.617 341.537 356.165 341.376 355.963C341.142 355.687 340.807 355.831 340.495 355.915C339.997 356.048 339.505 356.207 339.04 356.413C338.704 356.558 338.031 356.738 337.802 357.03C337.406 357.543 337.787 358.418 337.97 358.952C338.254 359.812 338.522 360.662 338.747 361.551C338.993 362.517 339.275 363.472 339.571 364.423C338.796 364.224 338.018 364.012 337.236 363.788C336.118 363.45 334.991 363.182 333.853 362.972C332.589 362.741 331.677 362.877 331.67 364.398C331.659 365.5 331.193 366.75 332.659 367.09C333.912 367.378 335.162 367.708 336.4 368.04C337.137 368.25 337.883 368.443 338.624 368.665C338.008 369.305 337.394 369.958 336.804 370.645C336.214 371.332 335.606 371.956 334.962 372.59C334.572 372.98 333.839 373.583 333.971 374.226C334.041 374.587 334.555 375.059 334.796 375.361C335.13 375.76 335.485 376.139 335.875 376.496C336.108 376.718 336.346 377.007 336.681 376.863C336.908 376.762 337.185 376.403 337.367 376.232C338.336 375.362 339.18 374.376 340.138 373.468C340.716 372.933 341.294 372.398 341.853 371.842C342.048 372.522 342.235 373.218 342.406 373.905C342.699 375.047 343.038 376.163 343.443 377.275C343.887 378.486 344.473 379.224 345.77 378.483C346.708 377.947 348.025 377.729 347.569 376.278C347.168 375.029 346.82 373.779 346.468 372.517C346.298 371.885 346.129 371.252 345.959 370.619C346.736 370.777 347.522 370.919 348.308 371.061C349.6 371.298 350.852 371.681 352.134 371.88C352.385 371.921 352.802 372.081 353.045 372.043C353.401 371.975 353.437 371.612 353.528 371.303C353.659 370.793 353.764 370.29 353.826 369.772C353.871 369.394 354.051 368.721 353.907 368.38C353.671 367.751 352.745 367.634 352.195 367.523Z" fill="#231F20"/>
<mask id="mask1_601_12233" style="mask-type:luminance" maskUnits="userSpaceOnUse" x="331" y="355" width="23" height="24">
<path d="M352.195 367.523C351.317 367.338 350.461 367.134 349.591 366.878C348.734 366.62 347.862 366.406 347.005 366.201C347.507 365.633 348.022 365.061 348.536 364.489C349.403 363.538 350.27 362.586 351.172 361.666C352.221 360.598 351.149 359.787 350.541 358.865C349.716 357.58 348.872 357.969 347.932 358.845C347.078 359.644 346.283 360.467 345.522 361.363C344.992 361.98 344.447 362.587 343.886 363.185C343.59 362.329 343.278 361.463 342.957 360.613C342.502 359.365 342.184 358.08 341.708 356.851C341.618 356.617 341.537 356.165 341.376 355.963C341.142 355.687 340.807 355.831 340.495 355.915C339.997 356.048 339.505 356.207 339.04 356.413C338.704 356.558 338.031 356.738 337.802 357.03C337.406 357.543 337.787 358.418 337.97 358.952C338.254 359.812 338.522 360.662 338.747 361.551C338.993 362.517 339.275 363.472 339.571 364.423C338.796 364.224 338.018 364.012 337.236 363.788C336.118 363.45 334.991 363.182 333.853 362.972C332.589 362.741 331.677 362.877 331.67 364.398C331.659 365.5 331.193 366.75 332.659 367.09C333.912 367.378 335.162 367.708 336.4 368.04C337.137 368.25 337.883 368.443 338.624 368.665C338.008 369.305 337.394 369.958 336.804 370.645C336.214 371.332 335.606 371.956 334.962 372.59C334.572 372.98 333.839 373.583 333.971 374.226C334.041 374.587 334.555 375.059 334.796 375.361C335.13 375.76 335.485 376.139 335.875 376.496C336.108 376.718 336.346 377.007 336.681 376.863C336.908 376.762 337.185 376.403 337.367 376.232C338.336 375.362 339.18 374.376 340.138 373.468C340.716 372.933 341.294 372.398 341.853 371.842C342.048 372.522 342.235 373.218 342.406 373.905C342.699 375.047 343.038 376.163 343.443 377.275C343.887 378.486 344.473 379.224 345.77 378.483C346.708 377.947 348.025 377.729 347.569 376.278C347.168 375.029 346.82 373.779 346.468 372.517C346.298 371.885 346.129 371.252 345.959 370.619C346.736 370.777 347.522 370.919 348.308 371.061C349.6 371.298 350.852 371.681 352.134 371.88C352.385 371.921 352.802 372.081 353.045 372.043C353.401 371.975 353.437 371.612 353.528 371.303C353.659 370.793 353.764 370.29 353.826 369.772C353.871 369.394 354.051 368.721 353.907 368.38C353.671 367.751 352.745 367.634 352.195 367.523Z" fill="white"/>
</mask>
<g mask="url(#mask1_601_12233)">
<path d="M352.195 367.523C351.317 367.338 350.461 367.134 349.591 366.878C348.734 366.62 347.862 366.406 347.005 366.201C347.507 365.633 348.022 365.061 348.536 364.489C349.403 363.538 350.27 362.586 351.172 361.666C352.221 360.598 351.149 359.787 350.541 358.865C349.716 357.58 348.872 357.969 347.932 358.845C347.078 359.644 346.283 360.467 345.522 361.363C344.992 361.98 344.447 362.587 343.886 363.185C343.59 362.329 343.278 361.463 342.957 360.613C342.502 359.365 342.184 358.08 341.708 356.851C341.618 356.617 341.537 356.165 341.376 355.963C341.142 355.687 340.807 355.831 340.495 355.915C339.997 356.048 339.505 356.207 339.04 356.413C338.704 356.558 338.031 356.738 337.802 357.03C337.406 357.543 337.787 358.418 337.97 358.952C338.254 359.812 338.522 360.662 338.747 361.551C338.993 362.517 339.275 363.472 339.571 364.423C338.796 364.224 338.018 364.012 337.236 363.788C336.118 363.45 334.991 363.182 333.853 362.972C332.589 362.741 331.677 362.877 331.67 364.398C331.659 365.5 331.193 366.75 332.659 367.09C333.912 367.378 335.162 367.708 336.4 368.04C337.137 368.25 337.883 368.443 338.624 368.665C338.008 369.305 337.394 369.958 336.804 370.645C336.214 371.332 335.606 371.956 334.962 372.59C334.572 372.98 333.839 373.583 333.971 374.226C334.041 374.587 334.555 375.059 334.796 375.361C335.13 375.76 335.485 376.139 335.875 376.496C336.108 376.718 336.346 377.007 336.681 376.863C336.908 376.762 337.185 376.403 337.367 376.232C338.336 375.362 339.18 374.376 340.138 373.468C340.716 372.933 341.294 372.398 341.853 371.842C342.048 372.522 342.235 373.218 342.406 373.905C342.699 375.047 343.038 376.163 343.443 377.275C343.887 378.486 344.473 379.224 345.77 378.483C346.708 377.947 348.025 377.729 347.569 376.278C347.168 375.029 346.82 373.779 346.468 372.517C346.298 371.885 346.129 371.252 345.959 370.619C346.736 370.777 347.522 370.919 348.308 371.061C349.6 371.298 350.852 371.681 352.134 371.88C352.385 371.921 352.802 372.081 353.045 372.043C353.401 371.975 353.437 371.612 353.528 371.303C353.659 370.793 353.764 370.29 353.826 369.772C353.871 369.394 354.051 368.721 353.907 368.38C353.671 367.751 352.745 367.634 352.195 367.523Z" fill="#231F20"/>
</g>
</svg>
