<svg width="74" height="115" viewBox="0 0 74 115" fill="none" xmlns="http://www.w3.org/2000/svg">
<path d="M38.3051 67.2341C30.2153 63.9658 22.1056 60.4643 17.7612 52.3567C14.189 45.6924 14.0155 37.3641 18.9026 31.3761C26.6178 21.9274 40.3968 17.2456 51.9691 14.9545C53.1716 14.7191 52.6869 12.8727 51.4877 13.1138C38.928 15.6156 22.0748 21.2387 15.6202 33.3477C12.3098 39.5497 13.4437 47.5147 16.8763 53.4336C21.2055 60.8922 29.8426 66.0625 38.1951 67.6265C38.459 67.673 38.5397 67.3358 38.3051 67.2341Z" fill="#231F20"/>
<path d="M35.1293 8.00339C41.148 10.1882 47.222 12.257 53.2837 14.3176C53.1467 13.8154 53.0097 13.3133 52.8727 12.8111C49.3593 16.2239 45.2333 19.5162 42.2617 23.4039C41.819 23.9884 42.413 25.0834 43.1434 24.5469C47.1758 21.6223 50.5968 17.5592 54.1534 14.0755C54.6606 13.5762 54.3719 12.7715 53.7425 12.5689C47.6624 10.5955 41.5731 8.61962 35.45 6.77043C34.661 6.52993 34.3706 7.7225 35.1293 8.00339Z" fill="#231F20"/>
<path d="M35.6376 47.4177C43.7273 50.686 51.837 54.1876 56.1814 62.2952C59.7537 68.9595 59.9271 77.2877 55.04 83.2757C47.3248 92.7244 33.5458 97.4063 21.9735 99.6974C20.771 99.9328 21.2557 101.779 22.455 101.538C35.0146 99.0363 51.8679 93.4132 58.3224 81.3041C61.6328 75.1022 60.4989 67.1372 57.0663 61.2183C52.7372 53.7597 44.1 48.5894 35.7476 47.0253C35.4836 46.9789 35.403 47.3161 35.6376 47.4177Z" fill="#231F20"/>
<path d="M38.8128 106.648C32.7942 104.464 26.7201 102.395 20.6585 100.334C20.7954 100.836 20.9324 101.339 21.0694 101.841C24.5828 98.428 28.7089 95.1357 31.6804 91.2479C32.1231 90.6634 31.5292 89.5685 30.7987 90.1049C26.7663 93.0296 23.3454 97.0927 19.7887 100.576C19.2815 101.076 19.5702 101.88 20.1996 102.083C26.2798 104.056 32.369 106.032 38.4922 107.881C39.2811 108.122 39.5716 106.929 38.8128 106.648Z" fill="#231F20"/>
</svg>
