<svg width="311" height="661" viewBox="0 0 311 661" fill="none" xmlns="http://www.w3.org/2000/svg">
<path d="M308.826 1.90863C277.782 -1.2048 244.895 1.07249 216.142 14.0144C202.41 20.207 189.771 28.9296 179.754 40.221C168.481 52.9439 160.82 68.5623 156.664 84.9962C148.129 118.847 154.062 153.906 164.085 186.734C169.321 203.876 175.367 220.833 183.242 236.945C191.2 253.226 201.051 269.466 214.185 282.133C225.914 293.435 240.986 301.248 257.593 299.956C271.897 298.844 285.06 290.537 290.312 276.896C295.404 263.671 291.978 248.564 285.86 236.299C279.303 223.137 268.9 211.732 257.367 202.714C233.573 184.119 202.782 174.58 172.666 177.73C142.287 180.883 113.712 197.461 94.8698 221.355C75.0679 246.447 68.2046 277.658 71.3126 309.128C72.864 324.943 76.7233 340.42 81.7951 355.469C87.4838 372.348 94.6751 388.917 104.326 403.944C113.976 418.97 126.186 432.376 141.423 441.861C152.954 449.055 168.272 454.181 181.476 448.416C195.715 442.201 201.71 425.484 198.989 410.883C196.137 395.486 185.43 381.998 174.049 371.775C151.625 351.617 120.416 341.005 90.3714 345.062C60.1172 349.135 32.3805 368.807 18.091 395.717C2.69812 424.678 6.24081 458.343 17.7904 488.016C29.8004 518.865 53.9024 548.141 88.9668 551.275C104.184 552.636 121.804 548.369 131.583 535.833C140.756 524.081 140.618 507.261 133.804 494.401C125.982 479.636 110.636 469.44 95.1727 464.026C81.7123 459.317 66.8709 457.821 52.8695 460.788C38.2966 463.852 25.4768 471.834 16.5481 483.796C6.44573 497.358 2.00805 514.463 0.997366 531.179C-0.961057 563.394 8.37556 596.416 25.1696 623.803C33.3555 637.154 43.4134 649.306 55.026 659.792C57.3851 661.907 61.5962 657.403 59.2532 655.269C36.8959 635.071 20.4705 608.585 12.258 579.617C4.18821 551.13 1.70632 515.768 18.2756 489.734C34.0787 464.9 65.7651 460.066 92.036 469.254C106.38 474.264 120.659 483.384 128.278 496.902C135.511 509.729 135.637 527.743 123.289 537.496C111.702 546.663 94.9771 547.56 81.1371 544.057C66.4916 540.352 53.7566 531.673 43.8045 520.425C32.6752 507.813 25.069 492.224 19.8431 476.327C15.094 461.814 12.2923 446.395 13.2725 431.086C15.1222 402.195 32.0705 376.746 56.7911 362.047C81.6457 347.267 112.057 346.324 138.667 356.942C151.637 362.111 163.507 369.822 173.417 379.633C183.821 389.933 194.123 403.856 194.211 419.135C194.26 426.502 191.832 434.29 186.409 439.45C181.489 444.097 174.698 445.679 168.076 445.158C153.471 443.995 140.263 434.879 129.822 425.231C105.777 402.971 91.6526 370.673 83.0296 339.596C75.304 311.696 72.506 281.272 82.3606 253.532C91.9129 226.64 113.165 204.383 138.96 192.426C164.942 180.402 194.591 179.815 221.367 189.631C246.787 198.938 271.484 217.849 282.486 243.212C287.47 254.671 289.965 269.078 283.215 280.396C275.768 292.909 259.704 296.423 246.235 293.627C230.073 290.286 217.154 277.9 207.493 265.209C197.345 251.906 189.401 236.94 182.848 221.567C176.256 206.162 170.918 190.168 166.478 173.999C162.224 158.413 159.046 142.444 158.17 126.296C156.502 95.2754 164.291 62.4482 186.635 39.791C207.046 19.1268 236.089 9.88295 264.394 7.13726C278.536 5.75637 292.773 6.01789 306.905 7.42819C309.914 7.75571 312.417 2.27859 308.826 1.90863Z" fill="#231F20"/>
</svg>
