<svg width="490" height="541" viewBox="0 0 490 541" fill="none" xmlns="http://www.w3.org/2000/svg">
<path d="M431.893 310.854C414.197 302.005 397.061 292.896 379.968 282.623C363.049 272.435 345.784 262.982 328.389 253.701C342.503 244.463 356.661 235.312 370.904 226.203C394.86 210.922 418.988 195.943 443.591 181.525C472.164 164.82 453.777 141.812 446.31 118.977C435.908 87.3783 415.664 90.7885 390.586 103.825C367.753 115.696 345.913 128.819 324.504 143.15C309.57 153.122 294.377 162.748 279.097 172.245C277.759 152.388 275.903 132.574 274.09 112.761C271.414 83.8386 272.105 55.0894 268.824 26.5129C268.177 21.0739 269.126 10.9728 266.839 6.05177C263.472 -1.11395 255.401 0.0515547 248.408 0.0947217C236.97 0.137889 225.618 0.785399 214.31 2.51208C206.195 3.72075 190.829 3.72075 184.398 8.59862C173.046 17.1888 176.067 37.7795 176.844 49.9957C178.139 69.723 178.873 89.105 178.614 109.048C178.355 130.804 179.002 152.474 179.909 174.187C164.37 165.511 148.918 156.704 133.681 147.51C111.625 134.214 89.2239 122.128 65.8728 111.336C40.2341 99.4651 19.8611 96.9614 10.9264 129.034C4.49513 152.215 -12.7698 176.043 16.5378 191.411C41.788 204.663 66.6066 218.52 91.2526 232.678C105.928 241.139 120.56 249.686 135.149 258.276C118.143 268.377 101.31 278.651 84.8213 289.659C68.2468 300.709 51.5427 310.638 34.2776 320.264C23.6164 326.221 4.66777 334.898 3.63186 349.1C3.07074 357.172 11.4012 370.036 14.7679 377.547C19.4727 387.95 25.1271 397.835 31.2994 407.461C35.0545 413.332 38.4643 420.757 46.3199 419.721C51.7153 418.987 59.6574 412.728 64.578 410.267C90.3462 397.49 114.086 381.259 139.811 367.791C155.22 359.719 170.672 351.69 185.952 343.315C186.168 358.855 186.254 374.395 186.038 389.979C185.649 415.706 186.513 441.175 188.973 466.816C191.649 494.918 199.764 513.825 231.963 505.364C255.228 499.234 284.492 502.17 283.025 469.104C281.73 440.614 281.212 412.167 280.996 383.763C280.91 369.431 280.91 355.1 280.953 340.768C296.75 348.495 312.764 355.92 328.691 363.345C355.02 375.604 379.494 390.713 405.823 402.281C410.873 404.483 419.074 410.397 424.469 410.872C432.368 411.562 435.433 404.008 438.929 397.965C444.626 388.079 449.806 377.935 454.036 367.316C457.057 359.676 464.827 346.423 463.834 338.394C462.107 324.106 442.814 316.293 431.893 310.854Z" fill="#5E9596"/>
<path d="M252.69 534.797C223.766 541.262 192.68 532.898 170.93 512.788L169.901 511.822L169.898 511.818L167.445 509.325L166.796 508.688C160.172 502.025 155.932 493.03 155.151 483.622L155.104 483.186C154.894 480.901 155.085 477.061 155.352 473.206C155.637 469.083 156.009 464.937 156.083 462.599L156.083 462.593C158.007 435.706 159.736 406.481 161.938 379.757L161.963 379.453L162.189 379.658C162.303 379.763 162.482 379.836 162.647 379.883C162.727 379.905 162.799 379.921 162.85 379.93C162.876 379.935 162.896 379.938 162.91 379.94C162.917 379.941 162.923 379.942 162.926 379.942L162.931 379.942L162.931 379.943L163.068 379.959L163.062 380.097C162.029 406.763 161.033 436.217 159.828 463.072C159.869 464.967 159.584 469.129 159.369 473.28C159.261 475.358 159.171 477.437 159.146 479.236C159.122 481.037 159.163 482.547 159.317 483.492L159.319 483.499C160.064 490.005 162.507 496.344 166.426 501.629L166.429 501.633C168.25 504.234 170.953 506.61 173.233 508.947L173.233 508.948L175.758 511.162C183.343 517.817 192.299 522.975 201.726 526.586L201.726 526.585C209.043 529.215 216.867 531.192 224.625 531.825L224.626 531.826C233.557 532.584 242.61 532.082 251.418 530.156L258.31 526.598C260.908 524.691 262.003 523.552 263.055 522.402C264.115 521.244 265.134 520.071 267.576 518.109L267.577 518.11C283.623 505.07 296.392 487.332 301.858 467.24L301.859 467.238C303.527 461.518 303.884 454.078 303.799 446.551C303.757 442.789 303.604 439.009 303.45 435.415C303.296 431.823 303.14 428.415 303.092 425.402L301.599 382.84L301.597 382.761L301.66 382.715L303.229 381.564L303.294 381.516L303.37 381.543C323.528 389.077 348.616 398.094 368.947 405.44L368.947 405.439C372.105 406.465 375.986 407.977 379.874 409.394C383.766 410.812 387.667 412.138 390.882 412.797L390.882 412.796C417.515 417.857 444.765 400.559 456.268 376.876L456.27 376.873C456.929 375.589 458.065 372.94 458.64 371.649L458.639 371.648C463.847 359.346 469.846 347.046 471.214 333.701L471.214 333.7C473.116 315.335 465.506 296.446 451.469 284.512L450.796 283.949L450.794 283.948L450.123 283.387C443.152 277.656 434.779 273.842 425.903 271.988L425.902 271.988L422.284 271.225C417.843 270.298 411.536 269.001 408.809 268.451L408.808 268.451L399.589 266.56C384.941 263.561 358.214 258.104 357.263 257.945L356.91 257.886L357.199 257.676C384.047 238.101 411.329 218.147 438.182 198.663L438.183 198.664L445.763 193.1L445.766 193.098C468.214 177.393 474.073 144.872 458.678 122.212L458.311 121.678L458.308 121.674L457.696 120.768C456.627 119.218 455.335 117.502 454.163 115.954L452.838 114.197L452.836 114.195L452.958 114.108L452.836 114.194C447.45 106.706 441.899 99.3316 434.628 93.5631L430.99 90.7633L427.188 88.2427C427.047 88.1582 426.885 88.0532 426.725 87.95C426.564 87.8455 426.405 87.7427 426.269 87.661L426.268 87.661L425.252 87.0779L425.252 87.0778L423.225 86.0032L423.222 86.0024L423.295 85.871L423.222 86.0014C416.674 82.3515 409.269 79.6384 401.832 78.1829L400.707 77.9714C395.075 76.9459 389.321 76.4199 383.604 76.6809L383.599 76.6812L383.078 76.6923C377.616 76.8534 369.653 78.4194 365.86 79.4621C337.761 95.2238 306.946 112.638 278.663 128.318L278.542 128.385L278.465 128.269L278.175 127.833L278.088 127.702L278.223 127.622C306.104 110.969 336.428 92.4935 364.417 76.1944L364.432 76.1859L364.448 76.1813C389.719 68.359 416.934 73.4231 437.628 89.8697L437.628 89.8706C446.516 96.7642 453.163 106.011 459.867 114.87L460.301 115.398C478.479 137.806 477.069 170.868 456.781 191.57L456.416 191.96C454.551 193.916 452.055 195.949 449.483 197.891C446.742 199.959 443.893 201.94 441.636 203.612L441.635 203.613L426.377 214.654C407.789 228.177 389.121 241.556 370.449 254.989C384.855 258.052 414.911 264.407 421.096 265.71C459.634 271.526 483.979 308.368 472.415 345.771L472.139 346.65C469.247 355.729 465.189 364.288 461.306 372.825C452.834 392.859 435.15 408.81 413.806 413.932L413.002 414.124C404.661 416.049 395.764 416.202 387.429 413.873L387.428 413.873C384.593 413.101 381.837 412.054 379.089 411.011L372.06 408.495C369.214 407.48 365.99 406.332 362.757 405.181L346.218 399.292L346.217 399.291L343.736 398.39C331.696 394.042 316.001 388.686 304.159 384.512L306.44 425.072L306.44 425.075L306.49 426.26C306.619 429.064 306.828 432.127 307.036 435.328C307.273 438.985 307.509 442.821 307.628 446.652C307.865 454.312 307.629 461.964 305.968 468.133C302.559 482.435 295.211 495.381 286.076 506.602L285.203 507.65C280.801 512.855 275.838 517.609 270.539 521.903L269.512 522.726C264.292 526.845 257.882 531.004 252.746 534.772L252.721 534.791L252.69 534.797Z" fill="#231F20" stroke="black" stroke-width="0.3"/>
</svg>
