<svg width="465" height="610" viewBox="0 0 465 610" fill="none" xmlns="http://www.w3.org/2000/svg">
<path d="M145.087 404.339C149.276 411.797 145.128 424.848 143.842 435.33C140.109 465.369 136.376 495.449 132.643 525.487C130.568 542.267 135.09 566.464 151.931 564.931C191.213 561.326 180.677 472.744 182.419 448.713C186.028 399.782 224.979 416.479 259.366 413.703C284.379 411.673 309.309 408.482 334.031 404.132C348.259 401.646 362.902 398.497 374.434 389.838C385.965 381.178 393.39 365.351 388.039 351.969C381.361 335.271 360.247 330.797 342.411 328.684C311.134 324.955 277.161 321.806 250.24 338.172C242.774 342.729 235.929 348.737 227.467 350.891C219.005 353.046 208.055 349.317 206.395 340.741C204.902 333.034 211.373 326.239 217.678 321.599C272.101 281.658 354.025 289.82 401.977 242.297C408.116 236.207 413.881 227.755 411.393 219.427C408.904 211.182 399.571 207.287 391.275 205.008C360.288 196.432 327.519 194.733 295.786 199.498C279.899 201.901 264.302 205.92 249.245 211.513C235.971 216.485 217.885 231.028 217.139 207.494C216.434 184.872 237.05 163.825 256.67 155.911C283.508 145.097 313.582 147.707 342.328 144.061C371.074 140.415 402.474 126.867 411.019 99.2731C419.316 72.4664 400.483 42.428 374.392 32.1114C348.301 21.7947 317.937 28.0924 293.629 42.0965C269.322 56.1007 249.826 76.9825 230.786 97.6158C226.14 102.671 220.54 108.098 213.696 107.684C207.474 107.311 202.745 102.173 198.431 97.6573C174.206 72.3421 140.939 55.7692 106.095 51.626C93.692 50.1758 79.9621 50.6316 70.463 58.7109C50.7182 75.6153 66.2321 109.921 89.2539 122.061C112.276 134.201 140.151 134.905 162.716 147.832C185.282 160.759 198.39 196.722 176.986 211.555C146.207 206.168 115.428 200.782 84.6496 195.396C59.9686 191.087 27.0742 191.17 18.6536 214.745C10.1916 238.361 36.2416 259.699 59.7196 268.607C79.2985 276.065 99.7897 281.119 120.571 283.688C130.9 284.973 169.436 280.001 173.252 290.69C178.313 304.819 165.246 323.422 153.881 330.217C138.74 339.249 119.659 339.166 102.444 335.23C80.5426 330.175 59.3048 319.279 36.9052 321.143C14.5057 323.007 -7.97679 346.748 2.76671 366.47C6.58294 373.472 13.593 378.071 20.6862 381.717C42.6294 392.987 67.2274 397.171 91.6596 398.373C104.519 398.994 117.419 398.746 130.278 398.29C138.492 398.083 142.93 400.444 145.087 404.339Z" fill="#F5CFC2"/>
<path d="M205.757 608.626C208.677 601.58 207.953 591.735 208.387 584.327C209.352 567.725 210.028 551.099 210.945 534.497C211.91 517.075 212.972 499.628 215.071 482.278C217.822 459.644 229.164 444.49 251.846 438.771C273.781 433.245 298.636 436.599 321.246 433.631C345.546 430.446 369.99 425.137 392.6 415.557C411.35 407.618 431.161 395.819 440.186 376.659C449.331 357.282 444.264 333.2 431.282 316.815C421.412 304.388 409.178 293.843 393.348 290.682C377.06 287.424 358.938 285.493 342.553 289.258C334.132 291.188 327.689 295.749 324.769 304.364C322.356 311.458 326.386 314.981 333.191 316.043C349.479 318.577 369.7 312.496 384.975 307.887C401.311 302.964 416.972 295.725 430.63 285.421C451.551 269.64 468.539 249.249 464.365 221.74C459.925 192.301 445.663 167.881 417.141 157.095C393.107 147.997 364.971 148.432 340.454 155.405C332.587 157.65 295.306 170.97 311.135 183.3C322.718 192.325 342.457 192.784 356.091 190.153C372.427 186.992 387.46 178.498 399.912 167.664C419.602 150.507 436.204 125.411 423.753 99.2535C411.253 72.9753 380.028 66.46 358.021 86.0541C350.951 92.3522 345.546 105.745 352.954 113.901C359.686 121.309 372.958 118.896 381.018 115.566C402.325 106.782 427.179 78.5012 419.844 53.8156C414.511 35.8866 400.032 19.7915 384.251 10.3323C361.785 -3.13261 335.242 -2.62586 311.473 7.17116C291.807 15.279 274.867 28.2613 260.268 43.536C259.23 44.6218 260.775 46.0938 261.885 45.1527C286.233 24.8589 314.393 3.31027 347.79 4.01005C368.108 4.4444 386.881 14.0966 400.322 29.13C413.98 44.3805 421.702 61.7787 411.422 81.2521C405.317 92.8348 395.375 103.549 383.744 109.726C377.881 112.839 370.183 115.807 363.426 114.239C347.814 110.643 353.943 93.8965 363.426 86.9952C376.36 77.5601 393.252 74.6162 406.813 84.4614C417.479 92.2074 424.67 105.986 424.622 119.21C424.549 145.391 396.172 169.642 374.744 179.97C359.252 187.427 341.299 190.371 324.624 185.207C320.377 183.88 310.725 180.284 311.666 175.024C311.859 174.01 314.176 172.442 314.9 171.79C318.278 168.846 322.259 166.578 326.265 164.623C344.894 155.55 367.167 152.872 387.629 154.488C411.012 156.346 435.553 165.347 448.487 186.1C463.544 210.23 467.188 241.648 448.149 263.969C428.989 286.459 402.832 299.996 374.43 307.018C366.153 309.069 357.756 310.71 349.31 311.796C344.484 312.423 335.314 314.426 330.705 311.916C324.673 308.611 330.126 299.899 334.277 296.497C337.365 293.963 341.781 293.119 345.618 292.395C361.785 289.378 381.114 290.754 396.847 295.194C411.494 299.344 425.177 312.616 432.995 325.43C443.057 341.935 444.626 363.966 434.225 380.592C414.294 412.396 367.649 423.014 333.311 428.853C317.482 431.556 301.314 433.414 285.243 433.51C264.805 433.631 242.701 433.776 226.702 448.568C209.618 464.349 211.066 492.268 209.594 513.624C207.881 538.744 207.157 563.888 205.564 589.008C205.178 594.944 205.66 602.425 203.344 608.023C202.789 609.447 205.154 610.074 205.757 608.626Z" fill="#231F20"/>
</svg>
