<svg width="139" height="178" viewBox="0 0 139 178" fill="none" xmlns="http://www.w3.org/2000/svg">
<path d="M137.392 98.4054C130.059 131.819 108.508 163.637 72.8788 163.637C37.2497 163.637 0 136.36 0 100.334C0 64.3079 35.5539 30.0156 71.183 30.0156C106.812 30.0156 145.109 63.2345 137.392 98.4054Z" fill="#EB7676"/>
<path d="M111.154 131.011C97.9846 119.84 79.9033 114.8 63.2045 120.704C54.4756 123.789 46.9711 129.856 42.6483 138.094C38.3864 146.207 37.2006 156.897 42.8965 164.668C47.5568 171.02 56.2554 174.965 64.0955 173.23C73.5103 171.142 77.0342 161.473 77.9691 152.89C79.1473 142.061 78.4919 130.899 78.5648 120.017C78.6454 108.301 78.7187 96.5865 78.792 84.8719C78.9605 58.5136 79.0769 32.1533 79.4013 5.79326C79.422 4.24599 81.8361 3.9588 81.8258 5.53468C81.71 32.8753 81.3715 60.2175 81.0917 87.5533C80.9518 101.221 80.8127 114.896 80.6736 128.572C80.5691 139.227 81.6941 151.03 78.3795 161.337C75.8684 169.144 69.7811 175.261 61.2975 175.631C53.7533 175.96 46.1065 172.192 41.54 166.232C29.8181 150.939 41.8082 129.382 56.5706 121.486C73.9625 112.188 98.4029 115.68 111.848 130.343C112.227 130.755 111.564 131.368 111.154 131.011Z" fill="#231F20"/>
<path d="M93.8229 19.1565C88.7516 14.0371 83.7788 8.79577 78.8149 3.56834C79.3879 3.50722 79.9684 3.44532 80.5414 3.3842C78.7275 8.53225 77.3232 14.2457 74.7682 19.0643C74.3535 19.8439 73.037 19.5535 73.2248 18.5975C74.2943 13.1574 76.8419 7.78254 78.7068 2.55477C78.9869 1.76722 79.9713 1.87022 80.4333 2.37063C85.2642 7.60482 90.1106 12.8448 94.8333 18.1796C95.3659 18.784 94.3899 19.7349 93.8229 19.1565Z" fill="#231F20"/>
</svg>
