<svg width="319" height="275" viewBox="0 0 319 275" fill="none" xmlns="http://www.w3.org/2000/svg">
<path d="M22.0783 147.712C24.2103 150.556 27.2221 152.759 31.2884 154.095C44.2606 158.306 51.0316 155.642 64.0452 162.12C77.9824 169.046 89.8886 182.46 102.083 191.986C127.114 211.525 153.547 230.923 187.059 228.346C232.918 224.805 311.336 204.717 302.709 145.627C295.104 93.6227 229.814 62.6517 185.248 49.6633C136.496 35.4248 70.6074 47.2383 36.1082 86.4467C24.4969 99.657 10.7997 132.608 22.0783 147.712Z" fill="#F2C25A"/>
<path d="M64.7708 137.834C66.2486 131.176 29.3043 111.201 94.3262 76.5779C146.344 48.8794 233.237 65.0369 270.181 76.5779C285.944 80.129 316.878 97.3518 314.514 137.834C312.149 178.317 283.973 200.866 270.181 207.08C260.329 208.856 235.305 210.01 214.026 200.422" stroke="black" stroke-width="3"/>
</svg>
