<svg width="668" height="466" viewBox="0 0 668 466" fill="none" xmlns="http://www.w3.org/2000/svg">
<path d="M363.427 136.931C372.794 117.804 383.031 99.5745 397.68 84.1667C419.456 61.239 445.067 45.7594 477.565 44.8019C518.811 43.5921 542.238 72.2768 533.384 112.709C527.986 137.416 515.053 158.396 500.484 178.521C499.172 180.348 497.928 182.212 496.103 184.853C507.874 179.435 518.502 174.013 529.545 169.61C545.583 163.195 562.309 159.924 579.686 160.941C601.734 162.257 619.936 171.485 632.486 189.704C652.105 218.188 659.63 250.345 657.995 284.613C657.394 297.004 655.409 298.218 642.67 297.501C620.1 296.236 597.51 293.548 574.961 293.67C530.522 293.903 486.108 296.46 441.672 296.623C390.125 296.784 338.552 295.73 286.982 294.572C242.516 293.591 198.087 291.536 153.63 290.311C145.694 290.107 140.449 287.325 136.136 280.658C119.81 255.27 113.05 228.062 118.25 198.009C124.008 164.889 150.085 149.981 181.284 162.5C186.86 164.738 192.06 167.83 197.378 170.51C195.379 156.087 192.553 141.532 191.465 126.829C189.326 98.3943 191.821 70.3625 206.088 44.9218C230.445 1.48888 278.901 -7.58484 318.137 23.2756C348.864 47.4627 362.598 79.6262 363.211 118.097C363.27 124.409 363.367 130.653 363.427 136.931Z" fill="#5E9697"/>
<path d="M377.4 288.79C357.258 379.563 298.059 466 200.19 466C102.321 466 -6.41756e-06 391.898 -4.2435e-06 294.029C-2.06944e-06 196.16 97.6628 103 195.532 103C293.401 103 398.599 193.244 377.4 288.79Z" fill="#F0BC6A"/>
<path d="M174.655 371.176C180.139 393.175 195.648 409.188 218.203 413.291C241.26 417.497 265.608 410.736 286.047 400.169C306.601 389.537 326.523 373.292 336.304 351.821C345.645 331.305 341.671 309.577 326.897 292.764C324.214 289.719 318.227 281.513 313.775 282.055C308.665 282.687 303.582 290.029 304.575 294.932C306.059 302.261 315.169 301.306 320.859 301.319C329.246 301.332 337.646 300.803 345.929 299.422C368.987 295.564 391.245 283.797 398.974 260.416C406.083 238.933 400.019 215.037 390.806 195.179C379.864 171.631 362.781 150.38 341.839 134.986C316.317 116.213 284.137 110.767 253.066 109.245C212.396 107.245 170.849 116.496 138.875 142.78C130.475 149.683 123.043 157.554 116.398 166.16C115.288 167.592 117.779 169.541 118.927 168.108C144.178 136.69 179.365 117.98 219.312 113.322C238.047 111.142 257.079 111.761 275.737 114.354C290.382 116.393 305.659 118.922 319.285 124.922C340.484 134.251 358.458 150.599 372.251 168.999C385.774 187.037 396.535 208.521 399.128 231.152C401.438 251.255 395.838 271.668 379.013 284.093C369.181 291.358 357.245 295.19 345.31 297.203C337.246 298.558 329.039 299.061 320.859 299.061C315.698 299.061 307.84 300.235 306.678 293.384C306.278 290.996 308.872 288.003 310.653 286.609C313.298 284.532 315.143 284.532 317.556 286.648C334.226 301.216 343.929 321.757 337.155 343.744C330.833 364.273 313.93 380.569 296.317 391.924C264.421 412.478 205.854 428.155 182.461 387.059C179.558 381.963 177.584 376.453 176.165 370.789C175.919 369.782 174.423 370.195 174.655 371.176Z" fill="#231F20"/>
<path d="M86.4369 329.486H80.3467L78.5016 324.506H69.0308L67.1857 329.486H61.0955L71.1469 304.596H76.3984L86.4369 329.486ZM73.792 312.286H73.7275L70.9533 319.525H76.5662L73.792 312.286Z" fill="#231F20"/>
<path d="M105.766 320.648C105.766 326.802 102.385 329.938 96.0497 329.938C89.7143 329.938 86.3337 326.802 86.3337 320.648L86.3337 304.596H92.0111L92.0111 318.983C92.0111 323.151 93.2755 324.351 96.0497 324.351C98.8238 324.351 100.088 323.138 100.088 318.983L100.088 304.596H105.766L105.766 320.648Z" fill="#231F20"/>
<path d="M107.572 304.596H125.068L125.068 309.577H119.159L119.159 329.486H113.482L113.482 309.577H107.572L107.572 304.596Z" fill="#231F20"/>
<path d="M137.598 304.144C144.501 304.144 150.114 309.757 150.114 317.021C150.114 324.299 144.746 329.937 137.598 329.937C130.23 329.937 125.043 324.299 125.043 317.021C125.043 309.757 130.746 304.144 137.598 304.144ZM137.598 324.454C142.127 324.454 143.997 320.738 143.997 317.034C143.997 313.318 142.01 309.615 137.598 309.615C133.223 309.615 131.172 313.331 131.172 317.034C131.159 320.738 132.94 324.454 137.598 324.454Z" fill="#231F20"/>
<path d="M158.281 329.486H152.604L152.604 304.596H158.281L168.178 320.041H168.242L168.242 304.596H173.919L173.919 329.486H168.242L158.346 314.041H158.281L158.281 329.486Z" fill="#231F20"/>
<path d="M188.964 304.144C195.867 304.144 201.48 309.757 201.48 317.021C201.48 324.299 196.113 329.937 188.964 329.937C181.597 329.937 176.41 324.299 176.41 317.021C176.41 309.757 182.113 304.144 188.964 304.144ZM188.964 324.454C193.493 324.454 195.364 320.738 195.364 317.034C195.364 313.318 193.377 309.615 188.964 309.615C184.59 309.615 182.539 313.331 182.539 317.034C182.539 320.738 184.319 324.454 188.964 324.454Z" fill="#231F20"/>
<path d="M223.377 314.738H223.222L218.125 329.344H214.745L209.648 314.738H209.493L208.319 329.486H202.642L204.874 304.596H210.912L216.435 318.957L221.957 304.596H227.996L230.228 329.486H224.551L223.377 314.738Z" fill="#231F20"/>
<path d="M238.189 329.486H232.512L232.512 304.596H238.189L248.086 320.041H248.15L248.15 304.596H253.827L253.827 329.486H248.15L238.254 314.041H238.189L238.189 329.486Z" fill="#231F20"/>
<path d="M262.343 329.486H256.666L256.666 304.596H262.343L262.343 329.486Z" fill="#231F20"/>
<path d="M78.1405 345.77H69.4181L69.4181 350.724H77.4695L77.4695 355.705H69.4181L69.4181 365.692H63.7407L63.7407 340.802H78.1276L78.1276 345.77H78.1405Z" fill="#231F20"/>
<path d="M95.0953 345.769H86.5277L86.5277 350.724H94.734L94.734 355.704H86.5277L86.5277 360.711H95.0953L95.0953 365.691H80.8503L80.8503 340.802H95.0953L95.0953 345.769Z" fill="#231F20"/>
<path d="M115.236 342.699L112.94 347.228C112.94 347.228 110.462 345.512 107.895 345.512C105.959 345.512 104.94 346.389 104.94 347.744C104.94 349.137 107.288 350.131 110.127 351.331C112.901 352.505 115.946 354.866 115.946 358.118C115.946 364.066 111.417 366.143 106.566 366.143C100.746 366.143 97.2109 362.853 97.2109 362.853L100.05 358.079C100.05 358.079 103.366 360.879 106.14 360.879C107.378 360.879 109.727 360.763 109.727 358.44C109.727 356.634 107.069 355.821 104.114 354.337C101.121 352.853 99.3786 350.531 99.3786 347.937C99.3786 343.292 103.482 340.337 107.495 340.337C112.036 340.337 115.236 342.699 115.236 342.699Z" fill="#231F20"/>
<path d="M117.107 340.802H134.604L134.604 345.783H128.694L128.694 365.692H123.017L123.017 345.783H117.107L117.107 340.802Z" fill="#231F20"/>
<path d="M142.32 365.692H136.643L136.643 340.802H142.32L142.32 365.692Z" fill="#231F20"/>
<path d="M143.739 340.802H150.139L156.41 357.15L162.681 340.802H169.081L158.642 365.691H154.178L143.739 340.802Z" fill="#231F20"/>
<path d="M187.726 365.691H181.635L179.79 360.711H170.319L168.474 365.691H162.384L172.435 340.802H177.687L187.726 365.691ZM175.081 348.492H175.016L172.242 355.73H177.855L175.081 348.492Z" fill="#231F20"/>
<path d="M195.106 360.711H203.674L203.674 365.691H189.429L189.429 340.802H195.106L195.106 360.711Z" fill="#231F20"/>
<path d="M72.3212 396.904H83.8435L83.8435 401.884H62.4246L74.734 381.975H64.1794L64.1794 376.995H84.6693L72.3212 396.904ZM73.5211 370.504L78.1404 367.124L80.192 369.872L73.5211 374.762L66.8503 369.872L68.9019 367.124L73.5211 370.504Z" fill="#231F20"/>
<path d="M100.424 381.975H91.8563L91.8563 386.93H100.063L100.063 391.911H91.8563L91.8563 396.917H100.424L100.424 401.898H86.179L86.179 377.008H100.424L100.424 381.975Z" fill="#231F20"/>
<path d="M108.604 401.885H102.927L102.927 376.995H108.604L118.501 392.44H118.565L118.565 376.995H124.243L124.243 401.885H118.565L108.669 386.44H108.604L108.604 401.885Z" fill="#231F20"/>
<path d="M151.288 401.885H145.197L143.352 396.904H133.881L132.036 401.885H125.946L135.997 376.995H141.249L151.288 401.885ZM138.643 384.685H138.578L135.804 391.924H141.417L138.643 384.685Z" fill="#231F20"/>
<path d="M267.711 263.513C256.782 260.764 216.125 261.526 216.125 261.526C216.125 261.526 253.724 207.965 256.744 201.333C223.996 202.081 172.126 211.346 172.126 211.346L177.494 180.301C177.494 180.301 195.79 178.043 207.764 172.972C218.254 168.534 226.848 157.682 227.286 154.792C218.667 156.237 177.661 164.637 162.513 167.618C160.978 177.953 154.926 214.714 154.926 214.714L135.83 218.765L143.017 171.85C132.94 173.772 124.965 175.746 118.269 182.017C109.004 190.688 85.5597 232.378 85.5597 232.378C85.5597 232.378 71.9729 237.771 68.7471 240.016C68.8374 241.178 81.4565 239.41 81.4565 239.41C56.4892 284.261 56.4893 291.512 56.4893 291.512C56.4893 291.512 57.3667 291.538 59.9215 289.319C65.0827 282.506 93.9208 237.487 93.9208 237.487L117.508 233.887C117.508 233.887 108.192 291.77 111.172 291.202C125.972 272.932 133.907 231.449 133.907 231.449L152.784 228.713C152.784 228.713 144.617 289.628 147.326 288.119C159.958 278.48 169.687 226.339 169.687 226.339L223.622 219.384C223.622 219.384 185.429 273.28 183.919 278.777C211.351 277.564 263.04 267.848 267.711 263.513ZM119.211 222.881L99.5079 228.739L124.295 189.798L119.211 222.881Z" fill="black"/>
<path d="M224.667 169.656L235.441 193.617C235.441 193.617 242.331 192.675 249.182 192.185L269.866 160.172C253.582 159.54 242.331 181.514 242.331 181.514C242.331 181.514 234.538 168.456 224.667 169.656Z" fill="black"/>
</svg>
