<svg width="261" height="286" viewBox="0 0 261 286" fill="none" xmlns="http://www.w3.org/2000/svg">
<path d="M237.568 166.772C228.01 162.651 218.725 158.38 209.423 153.492C200.21 148.641 190.85 144.198 181.429 139.847C188.509 134.465 195.611 129.104 202.761 123.806C214.773 114.881 226.925 106.103 239.313 97.6181C253.704 87.7678 243.32 76.1609 238.598 64.2588C232.083 47.7843 221.6 50.3105 208.927 58.0836C197.363 65.1667 186.384 72.8758 175.66 81.1876C168.173 86.9936 160.542 92.6097 152.866 98.1846C151.499 87.6822 149.85 77.1978 148.223 66.712C145.854 51.4319 145.246 36.1058 142.542 21.024C142.031 18.1383 142.188 12.7561 140.807 10.2134C138.786 6.5178 134.598 7.40417 130.935 7.66008C124.953 8.06408 119.036 8.79558 113.175 10.0761C108.968 11.008 100.923 11.4994 97.7073 14.3134C92.0581 19.2504 94.319 30.1158 95.1441 36.5628C96.4867 47.0226 97.5347 57.3021 98.0807 67.9012C98.6669 79.4704 99.772 90.9843 100.964 102.493C92.5389 98.388 84.1545 94.2364 75.8644 89.8576C63.8581 83.5275 51.7191 77.8469 39.125 72.8807C25.3021 67.4182 14.5298 66.7794 10.9581 84.141C8.36181 96.6651 0.131144 109.925 16.0016 117.113C29.6759 123.315 43.1327 129.862 56.5113 136.547C64.4942 140.547 72.4379 144.616 80.3817 148.686C71.8361 154.626 63.341 160.673 55.085 167.058C46.7669 173.492 38.366 179.312 29.6546 185.042C24.2854 188.568 14.6515 193.826 14.5902 201.39C14.5608 205.703 19.3555 212.273 21.3876 216.144C24.2133 221.535 27.4962 226.587 31.0539 231.511C33.2263 234.512 35.2557 238.34 39.3396 237.526C42.1326 236.95 46.0828 233.36 48.5797 231.896C61.6314 224.254 73.5244 214.828 86.5305 206.813C94.3211 202.004 102.156 197.215 109.872 192.257C110.531 200.527 111.08 208.783 111.5 217.068C112.179 230.776 113.497 244.266 115.648 257.836C117.99 272.698 122.901 282.465 139.46 276.898C151.435 272.862 166.863 273.447 164.959 255.904C163.32 240.798 162.072 225.69 161 210.592C160.47 202.977 159.982 195.337 159.518 187.717C168.062 191.306 176.682 194.713 185.28 198.121C199.463 203.76 212.81 210.977 226.99 216.24C229.709 217.238 234.203 220.112 237.058 220.173C241.223 220.283 242.57 216.152 244.186 212.821C246.842 207.367 249.207 201.8 251.059 196.022C252.383 191.87 255.987 184.565 255.214 180.303C253.845 172.83 243.476 169.313 237.568 166.772Z" fill="#F2C25A"/>
<mask id="mask0_601_12227" style="mask-type:luminance" maskUnits="userSpaceOnUse" x="6" y="7" width="250" height="272">
<path d="M237.568 166.772C228.01 162.651 218.725 158.38 209.423 153.492C200.21 148.641 190.85 144.198 181.429 139.847C188.509 134.465 195.611 129.104 202.761 123.806C214.773 114.881 226.925 106.103 239.313 97.6181C253.704 87.7678 243.32 76.1609 238.598 64.2588C232.083 47.7843 221.6 50.3105 208.927 58.0836C197.363 65.1667 186.384 72.8758 175.66 81.1876C168.173 86.9936 160.542 92.6097 152.866 98.1846C151.499 87.6822 149.85 77.1978 148.223 66.712C145.854 51.4319 145.246 36.1058 142.542 21.024C142.031 18.1383 142.188 12.7561 140.807 10.2134C138.786 6.5178 134.598 7.40417 130.935 7.66008C124.953 8.06408 119.036 8.79558 113.175 10.0761C108.968 11.008 100.923 11.4994 97.7073 14.3134C92.0581 19.2504 94.319 30.1158 95.1441 36.5628C96.4867 47.0226 97.5347 57.3021 98.0807 67.9012C98.6669 79.4704 99.772 90.9843 100.964 102.493C92.5389 98.388 84.1545 94.2364 75.8644 89.8576C63.8581 83.5275 51.7191 77.8469 39.125 72.8807C25.3021 67.4182 14.5298 66.7794 10.9581 84.141C8.36181 96.6651 0.131144 109.925 16.0016 117.113C29.6759 123.315 43.1327 129.862 56.5113 136.547C64.4942 140.547 72.4379 144.616 80.3817 148.686C71.8361 154.626 63.341 160.673 55.085 167.058C46.7669 173.492 38.366 179.312 29.6546 185.042C24.2854 188.568 14.6515 193.826 14.5902 201.39C14.5608 205.703 19.3555 212.273 21.3876 216.144C24.2133 221.535 27.4962 226.587 31.0539 231.511C33.2263 234.512 35.2557 238.34 39.3396 237.526C42.1326 236.95 46.0828 233.36 48.5797 231.896C61.6314 224.254 73.5244 214.828 86.5305 206.813C94.3211 202.004 102.156 197.215 109.872 192.257C110.531 200.527 111.08 208.783 111.5 217.068C112.179 230.776 113.497 244.266 115.648 257.836C117.99 272.698 122.901 282.465 139.46 276.898C151.435 272.862 166.863 273.447 164.959 255.904C163.32 240.798 162.072 225.69 161 210.592C160.47 202.977 159.982 195.337 159.518 187.717C168.062 191.306 176.682 194.713 185.28 198.121C199.463 203.76 212.81 210.977 226.99 216.24C229.709 217.238 234.203 220.112 237.058 220.173C241.223 220.283 242.57 216.152 244.186 212.821C246.842 207.367 249.207 201.8 251.059 196.022C252.383 191.87 255.987 184.565 255.214 180.303C253.845 172.83 243.476 169.313 237.568 166.772Z" fill="white"/>
</mask>
<g mask="url(#mask0_601_12227)">
<path d="M237.568 166.772C228.01 162.651 218.725 158.38 209.423 153.492C200.21 148.641 190.85 144.198 181.429 139.847C188.509 134.465 195.611 129.104 202.761 123.806C214.773 114.881 226.925 106.103 239.313 97.6181C253.704 87.7678 243.32 76.1609 238.598 64.2588C232.083 47.7843 221.6 50.3105 208.927 58.0836C197.363 65.1667 186.384 72.8758 175.66 81.1876C168.173 86.9936 160.542 92.6097 152.866 98.1846C151.499 87.6822 149.85 77.1978 148.223 66.712C145.854 51.4319 145.246 36.1058 142.542 21.024C142.031 18.1383 142.188 12.7561 140.807 10.2134C138.786 6.5178 134.598 7.40417 130.935 7.66008C124.953 8.06408 119.036 8.79558 113.175 10.0761C108.968 11.008 100.923 11.4994 97.7073 14.3134C92.0581 19.2504 94.319 30.1158 95.1441 36.5628C96.4867 47.0226 97.5347 57.3021 98.0807 67.9012C98.6669 79.4704 99.772 90.9843 100.964 102.493C92.5389 98.388 84.1545 94.2364 75.8644 89.8576C63.8581 83.5275 51.7191 77.8469 39.125 72.8807C25.3021 67.4182 14.5298 66.7794 10.9581 84.141C8.36181 96.6651 0.131144 109.925 16.0016 117.113C29.6759 123.315 43.1327 129.862 56.5113 136.547C64.4942 140.547 72.4379 144.616 80.3817 148.686C71.8361 154.626 63.341 160.673 55.085 167.058C46.7669 173.492 38.366 179.312 29.6546 185.042C24.2854 188.568 14.6515 193.826 14.5902 201.39C14.5608 205.703 19.3555 212.273 21.3876 216.144C24.2133 221.535 27.4962 226.587 31.0539 231.511C33.2263 234.512 35.2557 238.34 39.3396 237.526C42.1326 236.95 46.0828 233.36 48.5797 231.896C61.6314 224.254 73.5244 214.828 86.5305 206.813C94.3211 202.004 102.156 197.215 109.872 192.257C110.531 200.527 111.08 208.783 111.5 217.068C112.179 230.776 113.497 244.266 115.648 257.836C117.99 272.698 122.901 282.465 139.46 276.898C151.435 272.862 166.863 273.447 164.959 255.904C163.32 240.798 162.072 225.69 161 210.592C160.47 202.977 159.982 195.337 159.518 187.717C168.062 191.306 176.682 194.713 185.28 198.121C199.463 203.76 212.81 210.977 226.99 216.24C229.709 217.238 234.203 220.112 237.058 220.173C241.223 220.283 242.57 216.152 244.186 212.821C246.842 207.367 249.207 201.8 251.059 196.022C252.383 191.87 255.987 184.565 255.214 180.303C253.845 172.83 243.476 169.313 237.568 166.772Z" fill="#F2C25A"/>
</g>
</svg>
